<?xml version="1.0" encoding="UTF-8" standalone="no"?>
<!DOCTYPE svg PUBLIC "-//W3C//DTD SVG 1.1//EN" "http://www.w3.org/Graphics/SVG/1.1/DTD/svg11.dtd">
<svg width="100%" height="100%" viewBox="0 0 2000 2000" version="1.1" xmlns="http://www.w3.org/2000/svg" xmlns:xlink="http://www.w3.org/1999/xlink" xml:space="preserve" xmlns:serif="http://www.serif.com/" style="fill-rule:evenodd;clip-rule:evenodd;stroke-linejoin:round;stroke-miterlimit:2;">
    <g id="Hufflepuff-Color" serif:id="Hufflepuff Color" transform="matrix(0.246289,0,0,0.246289,-50.6108,-48.0364)">
        <path id="Hufflepuff" d="M4558.79,449.229C4594.39,463.057 4736.27,471.749 4806.07,562.204C4830.89,594.357 4864.97,684.013 4931.07,713.975C5058.65,771.799 5077.73,824.185 5084.13,882.538C5090.03,936.385 5039.46,1012.08 4911.29,1003.45C4966.72,1037.56 5011.78,1081.84 5045.66,1137.08C5078.62,1190.83 5053.7,1259.22 5112.06,1330.18C5183.64,1363.63 5286.27,1432.09 5288.13,1541.62C5402.54,1529.93 5526.21,1620.86 5571.3,1730.12C5655.54,1717.39 5738.65,1715.26 5820.31,1726.77C5886.42,1736.09 5951.58,1754.36 6015.62,1783.18C6070.06,1711.29 6130.25,1657.91 6174.41,1651.41C6283.94,1635.29 6445.81,1619.93 6492.05,1651.41C6558.56,1696.68 6621.23,1756.58 6679.97,1831.52C6707.2,1866.27 6714.95,2063.07 6682.21,2167.12C6667.33,2214.43 6629.35,2242.62 6596.27,2274.07L6603.7,2307.9C6885.59,2273.31 7004.21,2359.75 7112,2452.23C7214.06,2539.8 7261.34,2666.7 7255.2,2831.67C7317.9,2849.45 7405.08,2887.97 7449.69,2947.69C7518.77,3040.16 7538.88,3145.87 7539.78,3246.62C7541.33,3422.4 7480.55,3588.36 7244.21,3742.95C7437.22,3996.05 7453.29,4466.01 7301.97,4818.34C7394.71,5054.73 7337.85,5230.37 7105.77,5334.85L7107.48,5390.98C7262.77,5348.6 7287.34,5459.21 7309.46,5521.24C7326.31,5568.5 7313.8,5627.84 7264.8,5702.21C7237.09,5744.27 7269.49,5973.71 7244.58,6078.58C7236.1,6114.29 7220.94,6159.39 7192.99,6189.5C7164.36,6220.33 7128.9,6240.74 7154.94,6261.57C7246.63,6334.9 7274.58,6374.94 7289.7,6473.33C7305.35,6575.13 7301.74,6718.54 7256.27,6810.35C7197.46,6929.11 7084.97,7017.1 6993.53,7064.33C6845.26,7140.94 6620.83,7151.55 6315.5,7092.07C5935.24,7781.47 4887.7,8123.75 4151.78,8122.18C3430.97,8120.65 2523.49,7852.89 1946.42,7109.2C1343.83,7197.09 1093.96,6914.49 1006.64,6654.32C968.131,6539.57 996.974,6419.16 999.559,6341.37C1001.74,6275.81 1032.39,6210.12 1097.2,6144.27C998.71,5757.36 960.215,5351.88 1094.51,5295.66C1123.69,5283.44 1156.25,5275.86 1200.87,5289.13L1204.31,5249.86C986.235,5189.17 959.94,4935.24 1002.95,4800.2C1013.96,4765.6 1040.97,4735.92 1074.6,4707.64C901.779,4246.16 953.234,3862.65 1220.86,3596.97C915.343,3391.11 903.254,3077.66 948.571,2924.96C979.817,2819.67 1123.02,2710.45 1228.72,2706.75C1236.34,2527.58 1333.89,2432.68 1419.69,2358.99C1539.01,2256.51 1698.73,2231.09 1888.71,2263.39L1922.21,2099.63C1870.61,1779.37 1978.03,1762.79 2050.82,1675.33C2127.93,1582.67 2287.57,1611.97 2386.88,1642.2C2423.75,1653.43 2462.63,1675.72 2503.84,1710.98C2658.54,1669.01 2816.6,1665.34 2976.49,1682.33C3031.61,1629.88 3107.98,1616.63 3196.91,1626.51C3252.21,1494.26 3326.55,1409.41 3433.55,1405.89C3447.41,1301.84 3516.72,1216.03 3629.41,1144.48C3642.39,1099.77 3693.44,1020.15 3693.44,1020.15C3693.44,1020.15 3466.35,999.082 3420.76,869.984C3396.8,802.165 3435.37,728.94 3493.21,691.522C3603.38,620.255 3709.14,508.015 3775.51,497.606C3896.89,478.569 3920.33,507.739 4061.7,507.473C4330.36,506.967 4462.94,412.001 4558.79,449.229Z"/>
        <path id="White" d="M2953.04,4000.81C2963.91,4015.18 2973.76,4030.5 2981.09,4048.13C2983.7,4039.42 2983.94,4029.75 2981.59,4019.04C2972.43,4012.14 2962.81,4006.28 2953.04,4000.81ZM2972.74,3861.95C2983.04,3879.61 2991.29,3897.35 2996.33,3915.19C3001.52,3903.81 3002.35,3889.27 3001.14,3873.25C2992.74,3867.66 2983.31,3863.83 2972.74,3861.95ZM3011.77,3802.79C3023.21,3816.91 3030.28,3832.56 3033.84,3849.42L3052.42,3815.03C3040.12,3809.14 3026.81,3804.72 3011.77,3802.79ZM3610.49,5448.94C3622.11,5450.4 3633.37,5453.09 3644.33,5456.87C3633.21,5467.44 3619.34,5475.21 3602.92,5480.4C3603.44,5469.41 3606.02,5458.94 3610.49,5448.94ZM3672.95,5550.81C3677.27,5558.13 3681.78,5565.2 3686.91,5571.48L3694.54,5552.14L3672.95,5550.81ZM3738.78,5550.76L3761.04,5553.23L3755.23,5572.19C3748.89,5565.71 3743.46,5558.52 3738.78,5550.76ZM3831.04,5591.82L3837.23,5607.06L3858.56,5600.64L3831.04,5591.82ZM3931.28,5610.03C3924.68,5618.47 3920.02,5628.03 3916.74,5638.39L3940.59,5639.19C3938.25,5627.94 3935.13,5618.27 3931.28,5610.03ZM3947.84,5691.62C3952.99,5697.65 3959.06,5704.29 3966.33,5711.75C3958.51,5719.13 3952.92,5727.58 3949.73,5737.2C3940.17,5724.84 3940.96,5709.2 3947.84,5691.62ZM4053.22,6078.78C4057.89,6095.17 4062.82,6110.03 4068.07,6122.98L4073.53,6105.45C4069.28,6092.56 4061.89,6084.66 4053.22,6078.78ZM4122,6152.3C4124.83,6161.16 4128.96,6168.72 4134.37,6175C4137.07,6167.27 4138.07,6159.38 4138.07,6151.4C4132.44,6149.92 4127.09,6150.28 4122,6152.3ZM4196.46,6121.19C4190.49,6121.42 4185.35,6121.37 4180.88,6121.07C4183.68,6127.15 4188.29,6132.3 4195.23,6136.27C4196.7,6132.27 4197.17,6127.3 4196.46,6121.19ZM3165.75,5255.32C3147.31,5252.51 3131.54,5252.21 3112.94,5251.3C3124.66,5267.89 3135.87,5281.38 3153.61,5294.48C3159.75,5283.63 3163.54,5270.31 3165.75,5255.32ZM3240.65,5277C3249.73,5294.41 3257.27,5304.26 3280.37,5312.41C3276.17,5297.38 3270.43,5286.42 3275.11,5272.3L3240.65,5277ZM3349.95,5249.49C3333.07,5252.59 3317.17,5256.58 3302.49,5261.68C3311.8,5274.45 3320.38,5281.96 3328.6,5287.01C3336.51,5274.64 3343.39,5262.09 3349.95,5249.49ZM3453.95,5202.15C3453.61,5213.18 3455.14,5224.16 3459.71,5235.03L3497.22,5216.61C3485.54,5207.61 3471.74,5201.84 3453.95,5202.15Z" style="fill:white;"/>
        <path id="Light-Grey" serif:id="Light Grey" d="M4331.89,3696.01C4332.77,3658.52 4331.32,3624.57 4320.22,3605.68C4315.2,3597.13 4308.2,3591.66 4298.55,3590.34C4277.69,3587.48 4253.35,3606.26 4238.14,3639.78C4167.04,3639.57 4096.76,3648.8 4027.99,3675.73C4031.72,3682.21 4031.83,3690.38 4033.98,3698.83C4038.6,3716.9 4014.56,3720.03 4009.96,3703.22C3997.88,3659.07 3929.48,3651.52 3904.5,3675.39C3862.07,3715.93 3863.06,3771.25 3906.07,3840.9C3918.59,3861.19 3905.18,3878.54 3889.37,3857.63C3867.19,3828.32 3850.81,3794.26 3842.7,3753.41C3758.13,3786.9 3686.84,3846.93 3634.39,3944.62C3605.78,3944.32 3581.47,3951.58 3563.26,3969.51C3548.44,3984.11 3537.66,4005.78 3531.88,4036.22C3548.23,4022.18 3574.76,4015.26 3589.91,4014.36C3539.38,4107.49 3514,4236.65 3517.23,4340.85C3519.13,4402.17 3522.04,4459.08 3542.49,4509.1C3551.92,4484.47 3557.05,4456.62 3561.24,4428.07C3563.04,4415.78 3573.05,4438.24 3579.88,4476.04C3588.68,4524.78 3594.53,4597.18 3595.18,4634C3596.06,4684.93 3589.41,4733.42 3571.99,4778.46C3566.51,4792.64 3532.4,4823.07 3489.61,4865.56C3438.04,4916.77 3373.67,4982.9 3329.26,5024.99C3302.46,5050.4 3189.45,5046.81 3152.16,5069.77C3122.63,5087.95 3096.08,5112.67 3073.94,5146.92C3088.15,5172.53 3119.48,5182.23 3157.38,5185.83C3186.38,5148.1 3215.06,5130.81 3243.57,5124.07C3231.74,5139.95 3220.21,5155.93 3217.37,5174.93L3237.13,5197.11C3261.22,5194.11 3284.27,5187.27 3307.82,5182.88C3325.74,5179.55 3303.08,5135.19 3332.17,5116.34C3342.85,5109.42 3356.98,5107.41 3376.62,5113.29C3390.28,5117.38 3409.8,5105.03 3435.08,5097.68C3469.17,5087.75 3511.22,5079.29 3539.86,5060.59C3578.03,5035.66 3610.33,5010.09 3642.05,4963.42C3672.65,4918.39 3719.38,4922.91 3753.27,4900.07C3770.47,4888.49 3786.54,4876.06 3801.12,4862.59C3810.96,4853.5 3811.84,4810.86 3812.5,4787.99C3813.23,4762.84 3804.86,4758.16 3801.75,4735.43C3798.02,4708.18 3791.42,4654.88 3795.18,4635.98C3796.98,4626.93 3822.88,4622.1 3836.1,4625.86C3853.67,4630.85 3870.57,4647.48 3887.01,4672.02C3906.04,4700.44 3962.19,4697.3 3997.09,4687.49C4037.59,4676.1 4075.8,4645.53 4112.11,4599.15C4115.33,4595.04 4122.89,4605.63 4131.2,4613.05C4139.59,4620.53 4148.44,4630.71 4152.38,4639.41C4161.27,4659.05 4159.97,4677.86 4155.33,4711.44C4169.42,4715.29 4180.22,4723.85 4188.22,4736.4C4207.73,4766.99 4198.16,4820.71 4199.44,4869.21C4200.66,4915.5 4210.16,4956.92 4225.14,4986.57C4254.88,5045.43 4339.36,5045.86 4350.14,5107.14C4355.24,5136.17 4360.46,5155.64 4358.6,5185.56C4370.98,5184.57 4381.11,5168.98 4390.69,5149.82C4398.31,5158.15 4404.7,5169.09 4410.06,5182.21C4430.87,5233.11 4383.03,5321.99 4384.2,5414.56C4385.02,5480.24 4372.13,5505.75 4435.77,5610.33C4449.42,5590.86 4476.92,5573.05 4488.93,5586.16C4510.43,5609.64 4515.1,5630.91 4514.76,5660.35C4514.54,5680.22 4504.4,5696.33 4494.16,5718.93C4489.39,5729.45 4484.07,5741.54 4481.49,5756.53C4492.78,5752.66 4503.37,5753.64 4513.19,5759.93C4520.83,5764.83 4483.41,5801.72 4428.28,5837.13C4383.69,5865.76 4325.64,5893.75 4287.92,5907.72C4192.61,5943.02 4085.31,5939.98 4053.24,5998.16C4045.06,6013.02 4040.83,6029.15 4045.61,6048.68C4068.27,6056.89 4085.82,6072.11 4099.16,6097.23C4103.74,6105.87 4104.21,6117.27 4104.8,6129.77C4119.02,6126.79 4133.48,6125.86 4148.1,6126.24C4151.97,6121.56 4155.32,6117.07 4158.31,6112.71C4140.49,6095.25 4133.91,6072.29 4136.83,6055.59C4139.58,6039.85 4157.39,6026 4177.3,6014.24C4199.41,6001.18 4264.73,5998.1 4344.57,5989.24C4387.32,5984.51 4432.06,5973.8 4474.72,5965.56C4507.99,5959.12 4540.93,5955.82 4564.61,5947.27C4599.97,5934.5 4632.46,5918.97 4661.14,5899.76C4630.55,5879.32 4611.03,5855.78 4614.36,5825.85C4640.84,5819.78 4684.03,5819.64 4715.28,5811.23C4744.4,5803.4 4771.36,5792.37 4795.92,5777.79C4785.84,5756.82 4776.81,5735.23 4768.71,5713.09C4799.83,5714.65 4826.44,5708.11 4848.41,5693.2C4860.8,5684.78 4870.51,5665.46 4872.36,5634.72C4873.08,5622.69 4867.14,5605.95 4867.89,5591.87C4868.72,5576.12 4877.12,5558.96 4877.1,5541.79C4861.07,5544.89 4844.92,5545.05 4828.45,5537.99C4802.71,5526.95 4839.58,5454.26 4865.8,5412.52C4885.82,5380.66 4868.06,5196.12 4852.94,5114.19C4835.78,5021.24 4805.48,4949.53 4764.77,4894.64C4754.27,4880.48 4734.23,4937.51 4717.34,4953.45C4705.83,4964.31 4693.69,4973 4680.61,4978.52C4687.14,4919.94 4690.02,4871.28 4693.28,4825.02C4694.35,4809.75 4588.95,4673.93 4515.15,4631.53C4494.47,4619.65 4459.03,4710.73 4430.32,4746.33C4422.71,4755.76 4414.93,4764.75 4406.92,4773.16C4417.49,4660.24 4426.84,4582.85 4399.03,4520.13C4381.51,4480.63 4351.62,4464.13 4308.23,4434.48C4283.53,4417.6 4251.11,4404.73 4220.65,4403.56C4192.13,4402.46 4170.88,4411.43 4140.11,4426.62C4120.45,4436.32 4087.56,4391.88 4070.27,4366.48C4051.58,4339.02 4072.49,4273.26 4029.97,4223.19C3992.91,4179.56 3943.59,4152.51 3933.65,4083.16C3923.89,4015.02 3962.43,3922.16 3995.21,3847.31C3958.04,3812.6 3925.64,3785.36 3964.16,3747.99C3977.87,3734.69 4017.07,3717.9 4052.86,3725.51C4091.06,3733.62 4126.24,3768.8 4150.95,3841.05C4154.48,3851.36 4175.7,3840.11 4189.91,3836.62C4226.79,3855.12 4262.28,3876.29 4291.23,3910.06C4256.6,3938.71 4235.05,3975.46 4249.65,4034.6C4215.9,4034.26 4186.26,4019.54 4165.05,4032.31C4148.02,4042.57 4144.74,4066.02 4139.06,4111.67C4134.93,4144.93 4157.64,4188.59 4196.59,4227.66C4250.02,4281.24 4328.96,4322.53 4421.19,4323.8C4446.98,4324.15 4465.69,4341.37 4463.01,4365.69C4487.03,4376.2 4511.43,4380.82 4535.3,4385.85C4584.83,4396.26 4611.37,4364.71 4645.96,4360.36C4680.55,4356 4707.45,4365.45 4743.86,4369.55C4742.18,4340.94 4747.07,4317.24 4759.13,4298.91C4770.94,4280.97 4789.62,4268.18 4815.77,4260.97C4740.17,4146.99 4649.17,4106.05 4578.28,4011.51C4536.3,3955.52 4500.34,3880.18 4465.97,3822.13C4446.48,3789.22 4424.92,3760.05 4397.54,3739.21C4376.25,3723.01 4354.4,3708.51 4331.89,3696.01ZM3069.3,3833.57C3117.54,3890.89 3152.54,3965.36 3179.37,4050.44C3172.22,4068.32 3165.77,4087.96 3163.75,4118.69C3145.28,4116.54 3128.47,4117.11 3119.3,4130.2C3106.07,4149.06 3136.48,4216.16 3162.89,4272C3144.51,4295.67 3131.87,4322.7 3152.19,4368.94C3155.63,4376.78 3189.68,4374.93 3210.83,4381.95C3230.25,4388.41 3207.85,4452.37 3247.66,4520.41C3267.9,4555 3290.19,4591.98 3325.23,4626.81C3314.63,4649.59 3389.4,4696.07 3477.77,4750.03C3499.93,4746.08 3527.02,4750.94 3546.26,4770.9L3519.2,4799.89C3470.05,4800.98 3407.14,4774.85 3335.23,4730.9C3342.34,4724.55 3347.2,4715.86 3350.14,4705.18L3198.98,4582.31C3209.52,4571.55 3218.43,4560.09 3226.41,4548.21C3150.72,4498.76 3086.85,4443.73 3061.22,4370.65L3090.68,4366.39C3074.2,4289.01 3059.43,4213.01 3047.75,4139.48L3001.05,4117.46L2992.18,4086.75C3002.7,4062.64 3005.53,4035.9 3006.08,4008.4L3007.93,3967.06C3016.54,3939.78 3022.59,3915 3027.3,3891.54C3043.04,3875.91 3057.1,3856.72 3069.3,3833.57ZM3940.05,5017.07C3976.23,5099.43 4034.96,5146.36 4122.9,5147.39C4095.91,5093.02 4039.85,5080.86 4019.18,5042.14C4010.54,5025.94 4003.87,5012.42 4006.18,4994.15C4011.42,4952.7 4057.28,4926.26 4073.92,4884.72C4086.69,4852.86 4095.4,4816.9 4099.2,4775.95C4048.07,4780.44 4007.84,4811.6 3973.78,4857.9C3993.19,4875.08 3987.42,4915.62 3981.18,4943.42C3975.52,4968.62 3958.31,4998.8 3940.05,5017.07ZM4063.26,5294.86C4077.6,5284.87 4075.27,5261.6 4088.71,5251.7C4105.81,5239.09 4127.21,5237.86 4144.71,5229.08C4160.77,5221.02 4175.66,5189.57 4184.67,5192.76C4218.98,5204.88 4238.64,5223.99 4266.87,5224.72C4290.06,5225.31 4308.56,5214.71 4333.74,5207.8L4342.03,5220.83C4358.68,5219.23 4380.67,5204.06 4393.44,5191.98C4391.24,5205.11 4392.01,5223.39 4389.24,5236.65C4364.74,5353.91 4336.8,5481.48 4386.02,5565.7L4328.03,5557.81C4322.99,5380.39 4340.65,5326.58 4296.87,5281.55C4284.36,5268.69 4267.8,5261.54 4246.05,5261.71C4225.54,5261.86 4207.34,5264.53 4194.12,5276.11C4158.89,5306.96 4139.51,5387.1 4149,5485.24C4140.04,5481.86 4129.61,5479.5 4117.43,5478.34C4103.78,5477.04 4085.17,5486.79 4069.55,5479.23C4057.81,5473.56 4038.16,5442.66 4016.94,5436.95C3993.71,5430.69 3971.31,5447.2 3934.72,5446.65C3904.86,5446.21 3845.55,5414.39 3808.22,5409.64C3784.48,5406.62 3764,5408.7 3749.25,5419.78C3733.04,5431.96 3758.12,5457.63 3761.58,5476.43C3764.77,5493.75 3767.09,5510.97 3767.71,5527.98C3754.24,5525.86 3740.07,5525.04 3725.03,5525.84C3703,5527.32 3681.51,5525.9 3660.83,5520.27C3651.15,5499.18 3660.65,5478.96 3680.03,5459.18C3667,5442.13 3651.47,5428.7 3628.26,5426.31C3640.15,5390.61 3669,5366.65 3707.07,5348.61C3730.47,5337.52 3763.38,5335.68 3801.21,5339.59C3882.14,5347.95 3992.46,5411.35 4072.57,5411.68C4070.53,5380.66 4074.87,5352.55 4085.6,5327.32C4095.49,5311.89 4107.33,5300.42 4120.18,5290.98C4100.53,5280.11 4081.81,5285.97 4063.26,5294.86ZM4974.96,4974.13C5020.86,5055.21 5064.22,5140.76 5100.7,5238.44C5104.14,5216.02 5105.96,5194.15 5104.15,5173.5C5102.38,5153.27 5026.56,5036.99 4974.96,4974.13ZM5008.32,5544.65C4992.75,5578.77 4985.11,5609.81 4989.06,5636.36C4992.57,5659.86 5014.99,5674.78 5029.42,5695.31C5037.73,5707.11 5010.54,5738.66 5017.42,5771.45C5024.07,5803.14 5035.78,5835.02 5062.89,5865.52C5063.95,5844.85 5067.19,5824.41 5074.35,5804.38C5106.05,5827.04 5139.06,5845.08 5173.6,5857.61C5209.66,5870.69 5247.38,5877.77 5286.99,5877.8L5258.05,5849.39C5237.82,5856.36 5203.01,5841.45 5156.49,5808.98L5137.26,5820.49C5122,5796.65 5102,5771.51 5083.79,5742.94C5092.88,5721.85 5094.15,5700.95 5089.96,5680.19C5085.16,5656.44 5062.79,5642.26 5047.25,5618.78C5032.93,5597.15 5025.99,5566.2 5008.32,5544.65ZM4170.73,3913.13C4190.81,3905.93 4201.8,3906.26 4209.84,3932.65C4216.74,3955.29 4205.57,3977.41 4177.38,3982.44C4149.03,3987.51 4127.33,4003 4117.68,3974.64C4108.69,3948.19 4133.29,3926.55 4170.73,3913.13Z" style="fill:rgb(175,171,166);"/>
        <path id="Red" d="M3921.64,1437.54C3880.81,1502.78 3749.2,1534.23 3693.2,1517.53C3661.41,1508.05 3623.81,1479.41 3624.74,1431.16C3625.71,1380.24 3752.31,1336.21 3803.91,1339.91C3849.83,1343.2 3944.62,1400.81 3921.64,1437.54ZM3723.8,1321.77C3832.35,1277.94 3915.05,1321.43 3976.1,1438.04C3986.53,1457.97 4086.75,1462.03 4145.29,1444.04C4175.11,1434.87 4153.04,1392.32 4114.51,1346.33C4094.41,1322.34 4053.71,1289.78 4018.93,1272.71C3963.85,1245.67 3912.01,1226.54 3855.24,1239.76C3810.27,1250.23 3745.44,1277.3 3723.8,1321.77ZM4026.46,1243.77C4098.67,1280.25 4152.55,1329.44 4182.82,1394.86C4190.34,1411.12 4268.8,1419.47 4306.96,1419.64C4352.29,1419.85 4392.62,1411.54 4432.03,1395.26C4452,1387.01 4417.27,1348 4375.03,1312.33C4339.95,1282.7 4288.58,1256.01 4259.01,1244.79C4189.21,1218.3 4086,1189.42 4026.46,1243.77ZM4282.04,1217.74C4362.26,1254.25 4434.48,1305.26 4486.43,1392.98C4497.75,1412.08 4577.4,1416.37 4615.46,1419.26C4649.88,1421.88 4680.14,1419.56 4705.9,1411.91C4741.95,1401.22 4665.86,1319.74 4630.71,1291.06C4591.65,1259.2 4544.88,1221.61 4488.49,1200.86C4441.28,1183.5 4326.29,1194.29 4282.04,1217.74ZM4533.43,1181.11C4629.26,1230.46 4715.23,1293.91 4764.4,1400.79C4777.28,1428.78 4903.28,1452.83 4909.98,1427.8C4925.23,1370.85 4829.63,1279.24 4772.52,1240.6C4705.08,1194.98 4623.49,1179.13 4533.43,1181.11Z" style="fill:rgb(103,0,42);"/>
        <path id="Silver" d="M3934.45,2788.85C3914.45,2846.82 3906.53,2900.39 3912.5,2951.41C4000.54,2903.43 4089.69,2917.81 4094.68,2978.06C4100.09,3043.42 4040.33,3071.49 4018.69,3083.2C3991.15,3098.09 3932.01,3087.34 3950.93,3033.73L3910.97,3049.68C3894.54,3129.06 3894.66,3204.59 3911.88,3284.61C4021.37,3228.08 4127.7,3180.74 4231.76,3140.1C4359.28,3090.31 4483.39,3050.59 4605.76,3016.37C4472.46,2894.97 4391.22,2765.93 4356.66,2630.03C4261,2649.67 4137.33,2717.78 4016.41,2786.1C4158.86,2670.21 4330.35,2605.52 4464.61,2580.15C4503.61,2572.78 4535.52,2578.22 4539.39,2589.11C4548.25,2614.05 4496.89,2624.68 4497.09,2639.63C4497.21,2648.63 4541.76,2650.72 4556.4,2663.24C4577.74,2681.49 4558.98,2706.88 4577.38,2713.31C4590.01,2717.72 4616.14,2716.67 4627.55,2727.73C4656.92,2756.19 4634.63,2784.86 4640.84,2789.64C4725.62,2854.97 4799.3,2919.64 4832.02,2981.82C4678.05,3009.59 4531,3052.25 4388.31,3103.72C4217.65,3165.28 4053.22,3239.46 3890.62,3315.86C3872.27,3226.95 3863.58,3134.39 3888.32,3029.24C3918.28,2999.67 3952.76,2997.75 3979.49,3001.29C3971.56,3022.38 3975.34,3047.7 3983.92,3051.39C4021.95,3067.69 4068.45,3019.58 4066.14,2987.2C4065,2971.17 4036.1,2952.97 4004.9,2951.92C3973.04,2950.85 3938.45,2967.27 3895.82,2983.1C3884.36,2924.22 3892.8,2857.7 3911.71,2787.18C3875.41,2832.77 3866.3,2898.12 3859.57,2959.04C3817.41,2929.09 3765.55,2914 3760.6,2945.77C3752.69,2996.52 3804.43,2985.41 3819.55,2995.16C3833.2,3003.96 3841.19,3024 3839.81,3043.25C3837.99,3068.62 3839.09,3186.8 3833.29,3264.01C3775.83,3188.78 3729.09,3104.41 3700.3,3004.77C3690.58,3114.36 3755.26,3253.59 3872.71,3375.48C4054.54,3284.3 4232.53,3206.37 4405.95,3147.12C4584.45,3086.12 4766.18,3034.95 4934.77,3000.92C4803.65,2875.94 4681.85,2742.13 4587.43,2601.63C4520.36,2501.84 4494.48,2390.24 4482.64,2302.4C4476.31,2255.51 4436.97,2105.93 4454.15,2068.98C4459.69,2057.06 4466.3,2052.79 4474.14,2054.28C4489.16,2057.14 4512.16,2085.21 4537.24,2117.12L4536.31,2023.99C4516.13,2025.62 4495.88,2025.96 4475.45,2022.94C4466.64,2021.64 4498.45,2017.92 4523.74,2010.57C4550.57,2002.78 4571.5,1991 4580.27,1977.16C4585.92,1968.24 4587.14,1957.58 4582.57,1944.72C4575.7,1925.42 4528.14,1953.81 4508.9,1929.65C4495.53,1912.86 4461.65,1859.65 4487.9,1848.17C4497.4,1844.02 4529.06,1853.24 4547.53,1845.72C4559.85,1840.7 4565.23,1829.67 4560.81,1813.75C4555.57,1794.86 4514,1779 4448.9,1757.69C4433.56,1752.67 4390.41,1767.33 4363.14,1772.6C4340.85,1776.9 4331.43,1760.82 4309.12,1764.22C4226.52,1776.84 4130.97,1804.04 4048.31,1812.29C4028.77,1814.24 4055.86,1748.13 4063.72,1711.43C4074.67,1660.36 4092.96,1612.67 4111.09,1553.49C4118.69,1528.65 4083.06,1519.56 4065.85,1521.74C4054.54,1523.17 4037.86,1532.12 4028.95,1551.73C4015.07,1582.3 3983.24,1694.15 3959.97,1774.22C3915.58,1770.42 3874.5,1755.27 3837.01,1727.8C3831.3,1747.63 3828.46,1773.78 3827.8,1804.72C3857.36,1834.29 3891.77,1868.46 3937.33,1885.56C4027.31,1919.33 4221.19,1828.25 4345.27,1825.82C4397.62,1824.79 4437.86,1842.07 4452.11,1887.1C4456.24,1900.15 4440.09,1933.4 4401.68,1951.86C4294.57,2003.35 4031.92,2078.16 3959.21,2080.48C3889.6,2082.71 3822.55,2034.32 3746.5,2014.87C3718.86,2007.8 3708.32,2085.53 3735.37,2106.86C3792.3,2151.74 3891.61,2200.82 3957.95,2198.7C4072.19,2195.05 4241.77,2134.85 4407.27,2031.69C4412.69,2045.65 4412.9,2063.86 4408.65,2085.72C4406.08,2098.94 4427.73,2113.41 4423.3,2135.64C4418.89,2157.77 4408.04,2173.49 4408.92,2181.95C4410.58,2197.98 4412.17,2215.21 4415.25,2224.72C4418.45,2234.6 4436.13,2244.05 4433.44,2261.65C4430.99,2277.63 4403.1,2290.45 4405.4,2309.64C4407.34,2325.8 4430.46,2335.5 4432.03,2349.72C4433.31,2361.32 4418.55,2372.1 4418.47,2386.34C4418.36,2404.68 4456.51,2428.12 4461.59,2448.11C4464.59,2459.89 4458.44,2476.43 4457.8,2482.64C4455.83,2501.95 4483.59,2516.96 4482.58,2528.98C4481.59,2540.74 4462.47,2527.04 4450.48,2555.17C4296.86,2599.7 4082.21,2676.15 3934.45,2788.85ZM3818.55,3217.88C3811.21,3155.68 3811.36,3095.31 3813.31,3029.1C3788.18,3004.76 3766.33,3011.23 3751.63,2995.55C3744.08,2987.49 3731.93,2957.27 3734.62,2943.03C3744.15,2892.58 3791.02,2882.75 3845.14,2925.6C3848.27,2894.56 3850.75,2859.23 3860.43,2830.68C3867.36,2810.26 3881.12,2795.22 3887,2778.91C3910.14,2714.78 3920.72,2646.8 3920.57,2573.58C3920.33,2456.26 3892.59,2294.12 3860.74,2198.95C3856.4,2185.96 3791.1,2161.3 3751.15,2148.65C3766.05,2218.73 3785.4,2284.71 3807.49,2359.1C3838.76,2464.4 3874.63,2545.92 3898.14,2638.33L3878.46,2620.37C3869.88,2668.63 3843.47,2710.28 3814.21,2752.41C3769.76,2816.42 3708.76,2867.15 3703.49,2895.66C3692.49,2955.03 3750.08,3119.59 3818.55,3217.88ZM3892.12,2210.9C3924.45,2307.9 3941.24,2411.82 3941.69,2523.03C3957.62,2437.22 3963.29,2339.72 3951.74,2222.57L3892.12,2210.9ZM3983.38,2230.73C3993,2389.04 3983.15,2561.89 3920.39,2774.22C4047.92,2696.53 4182.11,2627.1 4328.71,2573.04C4350.36,2565.05 4298.98,2401.66 4286.76,2328.73C4277.95,2276.1 4277.79,2232.87 4265.49,2196.99C4260.92,2183.66 4256.04,2171.82 4250.81,2161.7C4242.44,2145.52 4154.14,2181.93 4106.85,2194.29C4083.01,2200.53 4048.67,2216.2 4021.35,2223.41C4000.85,2228.83 3983.08,2225.79 3983.38,2230.73ZM4604.36,2730.21C4618.04,2730.21 4629.15,2741.32 4629.15,2755C4629.15,2768.68 4618.04,2779.78 4604.36,2779.78C4590.68,2779.78 4579.58,2768.68 4579.58,2755C4579.58,2741.32 4590.68,2730.21 4604.36,2730.21ZM4526.48,2665.1C4541.02,2665.1 4552.83,2676.91 4552.83,2691.45C4552.83,2706 4541.02,2717.81 4526.48,2717.81C4511.93,2717.81 4500.12,2706 4500.12,2691.45C4500.12,2676.91 4511.93,2665.1 4526.48,2665.1ZM4415.3,2431.75C4430.41,2431.75 4442.67,2443.69 4442.67,2458.4C4442.67,2473.11 4430.41,2485.06 4415.3,2485.06C4400.2,2485.06 4387.94,2473.11 4387.94,2458.4C4387.94,2443.69 4400.2,2431.75 4415.3,2431.75ZM4402.22,2333.34C4411.55,2333.34 4419.11,2340.91 4419.11,2350.24C4419.11,2359.56 4411.55,2367.12 4402.22,2367.12C4392.9,2367.12 4385.33,2359.56 4385.33,2350.24C4385.33,2340.91 4392.9,2333.34 4402.22,2333.34ZM4399.39,2238.28C4410.05,2238.28 4418.71,2246.93 4418.71,2257.6C4418.71,2268.26 4410.05,2276.92 4399.39,2276.92C4388.73,2276.92 4380.07,2268.26 4380.07,2257.6C4380.07,2246.93 4388.73,2238.28 4399.39,2238.28ZM4385.39,2105.95C4398.56,2105.95 4409.25,2116.64 4409.25,2129.82C4409.25,2142.99 4398.56,2153.68 4385.39,2153.68C4372.22,2153.68 4361.52,2142.99 4361.52,2129.82C4361.52,2116.64 4372.22,2105.95 4385.39,2105.95ZM4252.5,1875.41C4243.36,1915.46 4236.05,1956.12 4233.26,1998.3C4125.89,2027 4033.31,2062.25 3944.98,2059.34C3883.03,2057.3 3828.56,2034.69 3774.45,2007.34C3767.12,1933.71 3782.19,1873.8 3812.79,1823.38C3858.88,1863.81 3908.47,1903.02 3968.55,1914.33C4050.97,1929.85 4139.3,1880.86 4252.5,1875.41ZM3987.98,1613.63L3949.23,1748.52C3919.73,1756.63 3885.18,1740.15 3847.3,1707.46C3864.86,1661.34 3897.53,1608.43 3921.8,1589.98C3940.35,1575.89 3976.72,1585.76 3987.98,1613.63ZM4139.65,1588.33C4118.41,1601.76 4083.39,1715.24 4075.1,1784.5C4110.21,1776.23 4136.54,1772.95 4171.51,1766.38C4204.27,1760.23 4265.77,1754.26 4278.54,1736.78C4310.41,1693.15 4297.11,1643.59 4279.72,1617.76C4257.73,1585.08 4188.08,1557.71 4139.65,1588.33ZM4351.88,791.337C4365.24,786.129 4399.14,799.086 4422.91,808.463C4435.71,813.511 4437.9,826.43 4449.73,831.807C4466.62,839.485 4497.8,829.321 4514.26,843.309C4523.27,850.964 4530,858.489 4540.91,862.475C4564.81,871.202 4610.46,858.083 4631.52,866.271C4645.49,871.705 4655.96,901.342 4670.29,914.597C4691.32,934.049 4730.32,936.462 4740.87,957.767C4745.82,967.768 4737.78,994.01 4727.22,1012.12C4721.18,1022.47 4664.32,1042.64 4643.1,1060.22C4621.73,1077.92 4612.37,1096 4630.4,1110.84C4659.89,1135.12 4689.55,1146.05 4715.89,1146.32C4732.6,1146.49 4706.2,1123.16 4688.49,1107.33C4695.23,1097.85 4700.1,1086.18 4709.67,1079.33C4754.39,1047.32 4826.45,984.238 4822,956.728C4818.24,933.539 4777.93,913.068 4765.01,890.832C4756.41,876.039 4750.86,861.11 4749.11,846.013C4785.2,874.892 4830.45,900.318 4868.09,902.717C4897.11,904.566 4947.47,898.317 4940.76,862.801C4936.27,839.038 4873.26,850.732 4820.82,817.174C4768.51,783.694 4735.41,713.025 4698.76,698.062C4621.93,666.693 4550.61,654.643 4478.85,650.564C4370.48,644.404 4245.7,674.11 4165.3,694.307C4142.73,699.974 4120.46,704.478 4098.27,706.584C4004.62,715.469 3903.6,674.558 3866.45,693.199C3829.63,711.676 3791.41,728.798 3751.78,744.551C3713.66,759.697 3674.24,773.576 3633.5,786.178C3641.51,811.764 3662.37,822.807 3691.8,824.15C3709.86,824.973 3736.24,807.813 3766.06,796.607C3811.26,779.619 3860.85,767.108 3873.62,778.862C3885.94,790.198 3898.3,798.002 3910.68,802.735C3923.24,807.533 3941.14,797.915 3948.46,808.148C3971.37,840.127 3963.65,875.66 3975.17,906.737C3983.06,928.011 4006.6,956.762 4003.72,967.239C3991.68,1010.88 3980.42,1056.56 3970.02,1104.49C4013.26,1062.17 4055.39,1040.2 4096.16,1043C4112.16,1021.32 4136.65,986.219 4136.68,971.809C4136.74,951.037 4106.49,951.053 4102.29,939.859C4097.96,928.355 4107.91,915.473 4108.04,906.932C4108.29,889.029 4069.93,879.698 4079.49,864.856C4100.21,832.674 4171.59,848.328 4218.5,835.54C4262.44,823.562 4306.89,808.881 4351.88,791.337Z" style="fill:rgb(182,182,182);"/>
        <path id="Yellow" d="M5237.93,6356.25L5348.22,6496.41C5284.27,6545.56 5217.48,6590.45 5147.04,6629.86C5131.19,6543.24 5162.78,6451.91 5237.93,6356.25ZM5646.88,6355.63C5646.88,6355.63 5642.91,6436.46 5613.03,6494.1C5569.8,6577.5 5460.22,6658.43 5416.65,6696.07C5362.86,6742.54 5300.57,6784.02 5230.11,6813.12C5201.52,6765.04 5171.37,6718.04 5133.1,6676.69C5124.48,6667.91 5256.13,6650.25 5386.03,6525.92C5472.24,6443.41 5590.28,6375.65 5646.88,6355.63ZM5698.21,6404.56C5802.12,6507.98 5869.68,6616.82 5964.59,6725.65C6020.95,6790.28 6097.8,6801.71 6155.22,6898.53C6184.03,6947.1 6032.49,7182.05 5752.41,7392.54C5321.78,7716.18 4762.57,7927.79 4087.42,7911.05C3481.26,7896.01 2514.49,7612.7 2086.01,6916.09C2058.72,6871.74 2260.15,6838.86 2418.1,6713.77C2504.65,6645.23 2586.23,6569.78 2660.89,6489.6C2742.88,6844.63 3608.48,7162.12 4102.11,7179.65C4663.18,7199.57 5680.35,6765.2 5698.21,6404.56ZM3210.8,6691.52C3012.71,6623.16 2793.89,6424.08 2739.88,6455.22C2642.17,6511.55 2877.85,6744.38 3085.07,6839.95C3110.62,6782.19 3161.87,6737.51 3210.8,6691.52ZM2954.41,6498.6C3090.09,6596.13 3233.26,6677.17 3287.53,6615.75C3333.13,6564.15 3225.35,6425.72 3113.74,6342.97C3096.57,6420.82 3053.54,6479.99 2954.41,6498.6ZM1308.95,6434.77C1316.2,6539.62 1418.18,6567.11 1460.99,6555.1C1528.71,6536.1 1596.79,6439.06 1508.33,6307.14C1466.13,6287.93 1427.15,6266.65 1392.03,6242.87C1254.99,6239.5 1134.85,6416.19 1232.08,6625.33C1378.76,6940.84 1862.17,6978.48 2164.91,6726.33C2495.63,6450.88 2532.4,5958.87 2280.71,5538.23L2177.97,5631.65C2412.68,5968.36 2259.79,6428.46 2090.33,6586.91C1976.13,6693.69 1729.71,6773.29 1504.59,6629.93C1371.87,6738.95 1233.92,6512.27 1308.95,6434.77ZM2044.42,6319.55C2050.66,6319.93 2049.78,6389.15 2045.59,6420.75C2042.96,6440.55 2026.32,6444.6 2007.81,6444.84C1942.68,6445.7 1918.68,6350.13 1815.08,6375.75C1697.69,6404.78 1726.72,6479.71 1735.68,6509.68C1753.01,6567.71 1916.53,6621.27 2062.52,6553.98C2012.19,6611.62 1890.97,6642.3 1815.86,6626.83C1749.85,6613.24 1653.63,6563.36 1639.32,6466.06C1632.41,6419.12 1662.87,6354.34 1720.36,6326.99C1796.59,6290.72 1896.69,6349.26 1982.71,6351.66C2021.69,6352.76 2010.82,6317.49 2044.42,6319.55ZM1784.47,6294.77C1827.01,6235.66 1993.49,6215.95 1998.78,6296.26C2000.13,6316.83 1977.66,6331.36 1944.75,6326.77C1899.5,6320.46 1836.89,6286.45 1784.47,6294.77ZM2013.07,6246.46C1992.96,6224 1961.3,6217.27 1918.09,6226.29C1928.41,6182.16 2035.29,6172.28 2013.07,6246.46ZM2063.06,5670.95C1959.47,5655.74 1892.77,5734.54 1943.5,5811.23C1961.95,5724.59 2007.17,5707.01 2063.11,5717.07C2015.73,5776.92 2075.95,5843.15 2111.97,5812.84C2239.99,5705.12 2113.48,5583.41 2066.55,5564.26C2009.89,5541.14 1841.7,5485.03 1765.86,5654.24C1745.37,5699.95 1739.41,5760.56 1762.47,5810.55C1831.18,5959.6 2014.01,5964.4 1937.7,6109.39C1993.62,6116.41 2001.63,6070.78 1992.36,6028.09C1988.39,6009.83 1971.94,5962.31 1952.78,5938.02C1910,5883.8 1848.38,5855.15 1835.47,5777.35C1796.88,5544.69 2074.01,5532.26 2063.06,5670.95ZM2035.05,5730.44C1940.2,5766.71 1951.78,5887.93 2055.48,5909.19C2095.37,5917.37 2179.9,5929.89 2239.29,5798.8C2233.25,5764.22 2219.64,5733.39 2191.9,5709.54C2179.24,5794.68 2127.69,5836.19 2086.93,5838.81C2049.23,5841.23 2021.55,5796.7 2035.05,5730.44ZM1220.23,5534.77C1248.82,5596.6 1274.13,5708.77 1321.86,5802.63C1358.88,5875.44 1413.4,5933.82 1464.07,5975.44C1618.27,6102.09 1827.76,6186.33 1930.13,6126.09C1733.16,6050.02 1778.36,5900.07 1673.71,5854.9C1628.72,5835.48 1578.84,5827.57 1522.36,5835.27C1561.12,5799.94 1611,5798.02 1669.07,5820.74C1630.65,5678.59 1518.59,5642.48 1373.95,5653.26C1375.51,5643.48 1382.06,5636.27 1392.25,5630.95C1343.59,5595.06 1284.73,5563.67 1220.23,5534.77ZM1523.85,5147.91C1679.58,5049.65 1785.56,5116.61 1825.64,5155.85C1857.01,5186.56 1895.59,5266.36 1813.44,5313.08C1756.32,5345.56 1698.92,5327.07 1670.32,5367.92C1637.17,5415.26 1628.2,5582.94 1774.59,5597.28C1742.54,5621.25 1717.94,5652.56 1711.3,5701.58C1648.33,5664.96 1591.81,5621.74 1566.37,5546.75C1355.09,5531.62 1338.11,5265.12 1523.85,5147.91ZM1671.8,5175.15C1692.49,5187.4 1688.05,5208.74 1669.77,5231.94C1643.39,5265.42 1597.13,5230.29 1539.15,5324.51C1529.02,5340.97 1533.93,5380.08 1548.04,5414.86C1565.76,5458.57 1600.46,5489.11 1580.1,5497.19C1538.87,5513.55 1491.13,5473.89 1468.21,5424.06C1449.56,5383.5 1451.03,5335.23 1455.91,5312.82C1468.73,5253.9 1580.1,5120.89 1671.8,5175.15ZM2053.2,5528.56C2092.43,5547.72 2129.34,5569.46 2158.45,5599.93C2245.86,5573.29 2300.77,5466.61 2322.33,5277.8C2362.61,5378.57 2377.82,5476.8 2337.09,5569.33C2373.68,5645.89 2408.27,5723.81 2439.13,5804.25C2479.23,5753.99 2490.15,5549.09 2450.92,5381.27C2433.2,5305.43 2390.21,5249.89 2361.26,5197.4C2322.03,5126.29 2283.05,5076.15 2274.1,5019.72C2265,4962.32 2299.34,4928.44 2302.55,4855.3C2304.43,4812.38 2293.1,4742.24 2248.21,4709.68C2256.13,4750.53 2259.18,4793.63 2258.49,4838.45C2257.4,4909.52 2229.5,5019.81 2231.56,5062.59C2197.04,5006.45 2142.27,4966.68 2065.9,4944.39C2145.65,5050.91 2211.7,5154.41 2204.14,5241.6C2199.92,5290.17 2174.11,5324.89 2112.61,5369.83C2070.06,5400.93 2102.98,5447.41 2154.43,5435.2C2136.45,5473.57 2105.97,5506.18 2053.2,5528.56ZM1905.96,4891.28C1946.35,4907.2 1989.49,4923.1 2035.34,4939C2069.18,4998.2 2172.41,5120.61 2176.96,5200.6C2178.85,5233.98 2169.92,5265.54 2145.92,5294.54C2090.24,5216.29 2033.64,5149.42 1992.08,5078.12C1955.36,5015.15 1926.45,4952.85 1905.96,4891.28ZM2431.14,5213.34L2473.33,5108.36C2449.24,5104.7 2425.49,5080.19 2427.54,5061.17C2433.77,5003.32 2440.65,4969.96 2439.38,4922.83C2437.66,4858.76 2415.94,4798.2 2395.33,4756.9C2348.87,4663.83 2228.72,4580.9 2197.01,4593.83C2214.05,4622.27 2235.34,4651.97 2239.03,4686.34C2280.6,4703.09 2308.22,4733.73 2320.85,4779.33C2325.83,4797.31 2328.51,4831.32 2324.33,4861.44C2315.43,4925.49 2290.63,4995.07 2297.21,5018.15C2325.16,5116.27 2369.28,5107.48 2398.25,5156.47C2407.7,5172.47 2423.3,5196.36 2431.14,5213.34ZM2165.17,4973.59C2023.64,4892.59 1846.68,4847.91 1787.24,4743.48C1701.73,4593.22 1681.29,4350.24 1683.17,4111.06C1714.38,4094.73 1734.08,4049.06 1752.38,4001.01C1759.52,4143.31 1738.19,4302.35 1751.41,4373.35C1784.54,4551.32 1859.35,4660.77 1938.32,4715.14C1986.14,4748.07 2035.85,4771.93 2083.36,4763.69C2105.31,4759.89 2125.01,4743.89 2143.86,4726.47C2157.23,4776.32 2147.89,4832.62 2152.18,4880.82C2155.03,4912.69 2159.11,4943.77 2165.17,4973.59ZM2102.26,4690.06C2123.48,4619.99 1804.99,4437.11 1773.48,4337.99C1806.71,4594.33 1982.33,4719.56 2048.92,4730.92C2070.34,4734.58 2092.13,4723.52 2102.26,4690.06ZM2327.4,4037.46C2321.11,4067.64 2312.02,4102.02 2300.5,4140.03C2225.46,4026.12 2154.91,4055.41 2135.23,4077.26C2122.92,4090.93 2108.66,4120.01 2110.54,4158.82C2113.68,4223.4 2188.84,4227.79 2218.35,4281.14C2231.95,4305.73 2208.69,4344.9 2191.23,4353.44C2163.01,4367.26 2045.49,4335.27 2005.43,4208.27C1988.73,4155.31 1984.42,4098.12 1981.36,4039.13C1976.21,3939.78 2029.9,3857.06 1990.15,3728.3C1976.75,3731.5 1958.47,3732.81 1934.44,3721.18C1900.74,3704.86 1857.96,3672.78 1821.04,3669.75C1792.48,3667.41 1722.98,3721.08 1674.41,3709.26C1657.56,3705.16 1651.26,3694.02 1661.47,3668.08C1563,3746.28 1489.48,3855.31 1463.71,3979.34C1444.63,4071.2 1451.38,4176.1 1492.41,4298.31C1511.8,4242.98 1535.33,4200.28 1562.21,4167.78C1589.09,4135.28 1619.32,4112.96 1652.08,4098.39C1689.53,4081.74 1619.33,3935.47 1683.84,3815.1C1710.11,3766.09 1739.38,3733.15 1789.58,3739.01C1866.74,3748.02 1890.68,3900.03 1871.72,3995.69C1905.52,4022.7 1942.7,4085.45 1957.91,4155.66C1977.1,4244.19 1970.84,4342.43 1984.88,4371.79C1998.47,4400.2 2091.13,4456.91 2145.35,4519.53C2243.66,4557.69 2390.14,4454.55 2430.89,4373.13C2470.45,4294.05 2501.58,4157.14 2418.7,4046.21C2385.38,4046.01 2354.45,4043.57 2327.4,4037.46ZM2290.34,4047.86L2284.9,4084.62C2272.28,4078.28 2261.21,4070.47 2251.54,4061.32L2290.34,4047.86ZM1671.92,4662.12C1662.23,4661.78 1646.86,4661.37 1634.33,4658.64C1620.84,4655.69 1600.63,4639.46 1594.03,4643.2C1584.65,4648.52 1647.68,4774.13 1684.53,4837.9C1711.75,4885.01 1771.93,4982.7 1783.67,4976.27C1793.59,4970.84 1792.95,4949.71 1801.87,4946.8C1809.9,4944.18 1821.14,4963.44 1833.01,4956.04C1842.27,4950.26 1771.12,4856.23 1744.2,4807.63C1709.69,4745.31 1680.85,4662.44 1671.92,4662.12ZM1533.45,4700.72C1511.53,4643.08 1530.97,4609.45 1554.17,4630.3C1578.31,4652.01 1636.08,4784.85 1629.53,4792.44C1621.31,4801.99 1582.81,4727.41 1557.63,4711.14C1549.75,4706.05 1536.2,4707.97 1533.45,4700.72ZM1466.12,5055.24C1633.44,4989.58 1657.06,4809.35 1539.08,4732.41C1583.52,4858.63 1526.18,4952.77 1468.57,4977.91C1428.54,4995.36 1336.19,5021.57 1297.03,4947.22C1267.34,4890.84 1361.75,4835.67 1412.96,4897.62C1443.13,4934.11 1489.18,4878.07 1452.67,4814.28C1430.47,4775.51 1265.2,4778.87 1221.32,4852.85C1206.61,4877.65 1193.48,4907.07 1196.18,4952.47C1202.61,5060.3 1358.04,5097.66 1466.12,5055.24ZM1274.11,4044.99C1310.93,3920.45 1355.37,3895.99 1395.76,3838.87C1419,3806.01 1446.62,3790.06 1467.66,3767.31C1489.42,3743.77 1504.3,3713.73 1509.74,3696.71C1518.4,3669.61 1496.63,3654.07 1478.55,3667.57C1315.37,3789.3 1197.28,3997.59 1179.16,4211.84C1175.21,4258.5 1179.23,4317.9 1186.45,4369.47C1204.97,4501.76 1291.17,4635.54 1281.45,4773.12C1330.13,4773.27 1389.32,4773.16 1437.54,4771.01C1447.04,4699.75 1355.48,4555.29 1297.8,4419.63C1273.56,4362.62 1260.02,4302.91 1254.88,4257.7C1246.09,4180.41 1254.84,4110.14 1274.11,4044.99ZM1456.78,3889.46C1330.37,3968.96 1285.21,4143.65 1309.9,4255.55C1332.63,4358.57 1410.85,4454.67 1587.59,4535.79C1569.17,4408.65 1571.73,4289.69 1593.96,4178.39C1559.46,4198.05 1525.73,4222.26 1510.44,4354.7C1420.59,4273.98 1385.33,4060.57 1456.78,3889.46ZM1688.4,3953.34C1671.95,3879.25 1713.79,3778.99 1748.3,3788.39C1800.63,3802.66 1734.8,3904.09 1688.4,3953.34ZM1947.51,4324.44C1939.4,4247.67 1940.52,4189.04 1924.16,4135.09C1913.16,4098.82 1897.93,4067.07 1877.79,4040.57C1891.72,4112.56 1882.81,4160.35 1897.11,4213.34C1908.03,4253.81 1924.27,4291.18 1947.51,4324.44ZM2023.65,3988.87C2009.05,3983.57 1994.6,4086.14 2018.94,4176.94C2038.54,4250.05 2124.18,4353.7 2136.94,4324.67C2142.56,4311.88 2078.28,4276.6 2048.69,4182.99C2019.61,4091.01 2044.75,3996.51 2023.65,3988.87ZM2148.63,4261.8C2149.01,4268.1 2160.15,4273.14 2168.31,4282.56C2177.17,4292.81 2179.09,4306.48 2188.2,4301.1C2194.31,4297.48 2190.84,4274.32 2180.75,4263.63C2169.2,4251.38 2147.76,4247.34 2148.63,4261.8ZM2314.74,3854.79C2317.04,3804.41 2345.56,3775.83 2369.3,3762.51C2397.19,3746.87 2432.39,3754.19 2473.64,3780.53C2560.86,3836.23 2505.02,3966.62 2443.02,3985.62C2353.06,4013.19 2295.98,4000.34 2232.96,3936.39C2191.14,3893.94 2155.82,3772.24 2175.43,3670.19C2188.54,3601.98 2225.24,3513.17 2267.74,3445.99C2302.3,3391.36 2343.38,3356.37 2363.69,3318.99C2434.34,3188.92 2511.62,3092.85 2599.64,3003.81L2653.84,3009.21C2543.27,3119.06 2473.19,3235.43 2408.79,3341.62C2389.43,3373.56 2366.63,3379.94 2347.26,3408.7C2324.25,3442.86 2305.67,3499.1 2294.69,3534.47C2259.43,3648.09 2260.19,3755.66 2314.74,3854.79ZM2379.23,3406.16C2314.27,3511.83 2279.41,3633.77 2304.9,3788.37C2316.62,3768.13 2327.92,3752.31 2338.88,3740.04C2324.37,3613.27 2341.73,3504.15 2379.23,3406.16ZM2059.15,3598.76C2037.79,3599.76 2024.86,3613.53 2019.19,3638.27C2011.25,3672.86 2042.05,3740.2 2038.41,3807.81C2056.56,3742.04 2079.57,3711.43 2086.05,3672.81C2092.29,3635.67 2084.16,3597.59 2059.15,3598.76ZM2251.09,3414.06C2153.87,3455.7 2071.54,3462.23 2017.83,3401.29C1897,3438.31 1787.39,3485.76 1672.16,3452.02C1610.94,3434.09 1544.24,3388.05 1483.01,3322.89C1439.3,3306.51 1403.14,3297.15 1366.6,3275.2C1337.39,3257.64 1311.44,3237.55 1290.32,3213.71C1308.63,3284.36 1348.87,3345.08 1416.66,3395.39C1493.79,3452.63 1608.59,3466.83 1673.44,3495.82C1688.65,3502.62 1702.46,3522.93 1717.46,3538.19C1832.23,3544.28 1939.69,3522.78 2040.31,3475.48C2145.95,3497.9 2203.2,3461.65 2251.09,3414.06ZM1285.67,3173.13C1323.65,3226.78 1416.77,3164.36 1438.43,3129.88C1463.33,3090.26 1495.6,3013.81 1417.47,2943.09C1332.66,2866.32 1209.35,2938.01 1179.15,2983.3C1130.5,3056.26 1048.52,3259.58 1419.15,3485C1430.5,3547.26 1513.29,3542.15 1594.08,3538.92C1269.53,3415.35 1219.53,3266.66 1201.38,3141.99C1193.95,3090.9 1207.82,3051.25 1254.18,3003.83C1293.57,2963.53 1363.59,2984.65 1370.61,3009.58C1391.04,3082.07 1261.21,3138.57 1285.67,3173.13ZM1343.8,3221.58C1385.17,3209.62 1423.82,3189.02 1460.36,3161.76C1527.02,3220.76 1602.81,3234.85 1682.48,3229.97C1602.14,3318.54 1435.48,3329.43 1343.8,3221.58ZM1497.21,2968.88C1513,3025.46 1508.38,3077.86 1484.75,3126.38C1544.7,3172.04 1601.84,3193.75 1664.36,3193.44C1715.26,3193.19 1753.45,3168.84 1821.88,3151.3C1869.8,3139.03 1939.53,3155.95 1983.43,3149.03C2010.17,3144.81 2023.95,3127.07 2027.18,3102.09C2036.16,3032.74 1886.44,3129.81 1770.29,3124.63C1667.48,3120.04 1571.47,3013.27 1497.21,2968.88ZM1491.38,2877.22C1484.71,2792.58 1495.17,2736.36 1517.51,2699.86C1539.2,2664.43 1572.09,2647.6 1611.38,2641.4C1659.72,2633.78 1609.75,2743.19 1613.52,2847.79C1615.83,2911.81 1664.63,2978.69 1691.12,3002.15C1733.81,3039.96 1795.29,3052.33 1880.39,3032.74C1758.14,2999.7 1682.07,2911.59 1720.09,2786.86C1754.41,2674.23 1924.69,2520.85 2024.51,2644.34C2042.5,2666.59 1928.69,2660.84 1906.1,2750.45C1882.45,2844.28 1977.94,2902.69 2033.23,2873.5C2100.84,2837.81 2194.69,2738.76 2097.62,2590.37C1997.1,2436.71 1736.86,2454.36 1629.53,2495.13C1513.75,2539.11 1387.3,2734.01 1491.38,2877.22ZM2149.86,2606.99L2244.63,2706.89C2226.94,2827.89 2138.39,2925.74 2077.46,2950.5C1912.65,3017.47 1790.7,2877.53 1868.13,2797.03C1897.89,2987.21 2060.48,2910.82 2110.27,2862.31C2149.06,2824.51 2221.74,2738.22 2149.86,2606.99M2274.39,2736.21C2284.77,2853.76 2212.7,2958.76 2074.5,3017.37L2122.8,3047.81L2066.61,3093.2C2081.45,3121.41 2064.3,3133.15 2037.07,3154.62C1982.08,3197.97 1885.42,3164.06 1815.16,3182.23C1748.68,3199.43 1701.29,3286.61 1602.12,3335.56C1717.05,3384.59 1866.99,3316.32 1991.72,3246.29C2128.24,3169.62 2277.06,3063.24 2384.14,2881.99L2274.39,2736.21ZM2235.67,2641.07C2179.9,2526.49 2155.85,2420.3 2160.27,2321.64C2164.8,2220.54 2199.24,2127.35 2260.1,2041.14C2235.41,2054.8 2210.08,2067.54 2182.05,2076.39C2107.95,2164.66 2073.41,2291.61 2087.61,2395.99C2098.96,2479.47 2137.37,2574.11 2235.67,2641.07ZM2345.99,2053.79C2368.41,1964.33 2338.75,1911.69 2307.22,1888.1C2283.18,1870.11 2214.89,1866.24 2189.87,1911.39C2160.94,1963.59 2221,2002.94 2269.92,1955.87C2284.05,2011.72 2219.69,2085.11 2141.48,2033.45C2094.79,2002.61 2101.2,1934.17 2132.87,1882.56C2160,1838.35 2206.58,1818.07 2252.61,1814.06C2283.82,1811.34 2323.62,1820.32 2346.95,1846.98C2377.31,1881.68 2399.49,1934.27 2396.68,2002.17L2345.99,2053.79ZM3152.2,1972.26C3091.86,2010.92 2958.57,1863.99 2773.82,1879.1C2708.26,1884.46 2616.3,1903.83 2559.72,1927.82C2306.94,2034.99 2227.89,2337.98 2255.4,2516.55C2281.83,2688.1 2408.26,2911.27 2702.42,2981.11C2527.93,2878.15 2419.66,2752.73 2418.77,2590.88C2573.52,3040.07 3096.55,2952.92 3340.19,2766.82C3489.28,2652.94 3735.62,2389.27 3750.94,2249.86C3729.4,2252.41 3707.93,2253.93 3686.66,2251.49C3537.91,2563.24 3263.93,2711.49 3066.72,2754.65C2904.85,2790.07 2561.16,2774.42 2634.15,2452.77C2659.11,2342.8 2830.59,2284.82 2838.88,2377.92C2842.26,2415.93 2809.8,2364.6 2786.65,2375.3C2769.4,2383.28 2759.06,2401.86 2766.89,2430.42C2781.72,2484.48 2865.5,2483.75 2911.32,2366.99C2954.59,2459.93 2876.29,2536.91 2815.61,2541.74C2777.57,2544.77 2700.74,2555.17 2652.32,2488.24C2677.68,2614.96 2793.46,2602.28 2857.04,2575.87C2910.07,2553.84 2957.42,2511.36 2995.12,2410.84C3026.56,2327.03 2979.15,2222.42 2907.11,2171.2C2837.91,2121.99 2745.73,2126.65 2704.33,2130.9C2641.68,2137.33 2550.97,2192.7 2506.7,2314.15C2487.21,2367.6 2478.43,2430.96 2482.48,2511.78C2408.03,2301.08 2471.07,2191.97 2562.49,2106.35C2603.27,2068.16 2706.12,2014.65 2787.8,2021.55C2931.99,2033.72 3014.18,2143.61 3194.02,2028.64C3238.72,2000.07 3266.2,1944.23 3261.89,1900.89C3258.34,1865.11 3229.56,1830.51 3189.87,1827.47C3100.26,1820.6 3083.16,1887.42 3089,1917.24C3095.29,1949.37 3113.68,1966.71 3152.2,1972.26ZM2105.14,3327.01C2224.58,3284.75 2327.23,3208.54 2309.87,3162.22C2303.15,3144.28 2282.14,3139.37 2263.11,3147.03C2236.18,3157.87 2209.38,3201.57 2170.31,3253.14C2152.05,3277.24 2134.24,3299.13 2105.14,3327.01ZM2724.02,3014.55C2674.53,3062.86 2626.88,3112.02 2596.81,3169.24C2766.39,3115.84 2871.24,3092.78 3015.55,3072.14C3129.68,3055.81 3240.1,3037.31 3357.11,3022.65C3428.17,2976.62 3475.92,2901.67 3508.05,2832.18C3529.85,2785.05 3542.01,2734.74 3541.97,2680.41C3354.42,2883.63 3200.52,2963.31 3019.58,3011.19C2923.71,3036.57 2854.8,3033.03 2724.02,3014.55ZM3133.24,2931.32C3044.17,2953.69 2954.58,2980.57 2866.9,2974.39C2835.9,2972.2 2841.06,3001.25 2861.18,3002.05C2964.84,3006.16 3056.43,2976.37 3140.65,2951.89C3158.87,2946.59 3148.3,2927.54 3133.24,2931.32ZM3477.87,2931.89C3451.37,2963.19 3429.5,2981.24 3396.32,3012.69C3431.84,3000.48 3468.32,2974.4 3505.25,2941.72C3511.36,2936.31 3495,2911.66 3477.87,2931.89ZM3457.38,3005.85C3555.47,2935 3643.26,2858.13 3716.34,2772.67C3772.04,2707.54 3819.19,2637.42 3855.86,2561.18C3856.07,2632.13 3811.45,2727.32 3677.64,2870.71C3666.44,2882.72 3678.18,2948.08 3677.4,2987.52C3607.18,2990.7 3534.77,2995.94 3457.38,3005.85ZM3632.49,2227.07C3604.61,2333.18 3520.48,2419.72 3445.36,2484.45C3381.18,2539.73 3306.81,2578.17 3219.98,2596C3382.31,2513.78 3514.67,2392.41 3605.86,2219.63L3632.49,2227.07ZM3577.93,2147.31C3586.4,2014.09 3645.44,1906.97 3725.97,1810.94C3755.09,1776.22 3728.45,1747.54 3684.27,1803.22C3604.77,1903.42 3529.43,2037.14 3436.85,2122.76C3397.4,2159.24 3355.36,2190.36 3309.76,2214.12C3359.84,2256.05 3349.99,2308.29 3332.39,2339.1C3318.33,2363.72 3280.27,2408.72 3229.37,2386.74C3316.45,2367.07 3318.22,2287.63 3301.41,2252.87C3282.9,2214.59 3247.86,2173.77 3162.28,2195.12C3028.97,2228.37 3029.63,2323.45 3028.63,2380.03C3027.57,2440.14 3068.93,2540.26 3176.95,2544.05C3128.28,2495.77 3090.02,2454.16 3088.45,2401.69C3087.4,2366.86 3114.6,2318.67 3139.64,2323.45C3177.1,2330.6 3155.9,2420.13 3197.12,2455.46C3209.64,2466.2 3226.01,2470.44 3241.76,2471.21C3266.89,2472.44 3299.2,2463.07 3329.48,2442.62C3408.01,2389.56 3492.97,2257.75 3577.93,2147.31ZM3013.29,2448.39C2978.94,2522.38 2928.9,2579.78 2853.99,2610.92C2921.42,2609.91 2984.62,2571.8 3043.89,2499.29C3033.54,2480.96 3023.38,2464.32 3013.29,2448.39ZM3367.02,1946.15C3422.09,1989.78 3401.08,2068.81 3318.55,2176.49C3361.57,2152.63 3404.07,2117.99 3446.2,2075.63C3528.29,1993.1 3583.79,1876.84 3689.3,1762.56C3685.17,1737.84 3674.65,1725.89 3659.26,1723.73C3639.74,1720.98 3600.92,1730.3 3569.57,1756.82C3510.25,1807.02 3517.65,1861.9 3367.02,1946.15ZM3513.7,1693.84C3540.31,1719.27 3590.09,1672.41 3578.51,1628.09C3644.19,1563.72 3689.18,1542.02 3699.95,1581.77C3703.51,1594.93 3672.14,1616.36 3634.28,1646.89C3609.82,1666.62 3584.06,1693.8 3560.43,1712.18C3531.44,1736.45 3502.96,1758.48 3482.98,1750.63C3443.65,1735.19 3471.35,1694.34 3453.54,1704.19C3412.56,1726.86 3398.99,1767.21 3407.04,1821.51C3382.96,1786.62 3371.14,1744.26 3379.72,1704.53C3386.9,1671.3 3414.03,1631.07 3447.89,1610.3C3493.12,1582.55 3530.06,1613.08 3542.3,1625.02C3556.81,1639.17 3559.44,1686.54 3513.7,1693.84ZM4602.8,2228.05C4570.07,2195.26 4553.84,2147 4555.74,2097.91C4620.61,2135.53 4658.28,2137.64 4681.23,2118.54C4737.97,2071.31 4696.94,1773.92 4541.96,1597.96C4490.32,1539.33 4532.98,1492.63 4567.47,1531.44C4750.42,1737.35 4807.44,1942.67 4798.82,2081.76C4793.43,2168.78 4756.61,2229.47 4726.58,2249.4C4701.79,2265.86 4647.68,2273.02 4602.8,2228.05ZM4848.97,1574.83C4871.36,1612.72 4880,1638.36 4893.27,1685.48C4897.8,1701.53 4941.51,1712.31 4968.49,1713.22C4996.56,1714.18 5021.59,1707.3 5053.17,1692.94C5086.69,1677.69 5099.4,1620.81 5096.16,1592.11C5093.07,1564.74 5076.04,1525.82 5042.04,1519.78C5005.89,1513.36 4974.56,1546.95 4993.46,1582.87C5001.04,1597.27 5026.44,1621.18 5035.49,1639.61C5039.64,1648.08 5037.02,1656.04 5033.56,1660.25C5026.21,1669.2 5003.49,1670.33 4956.42,1659.06C4933.68,1653.62 4947.77,1619.96 4945.65,1589.3C4943.96,1564.88 4924.44,1540.7 4912.61,1535.26C4894.95,1527.14 4827.51,1538.52 4848.97,1574.83ZM4794.75,1574.53C4945.37,1784.42 4927.23,1994.84 5054.34,2173.08C5083.95,2214.61 5119.92,2249.29 5153.56,2262.66C5156.76,2308.4 5221.86,2364.2 5293.13,2374.58C5320.19,2378.51 5345.96,2366.69 5372.77,2358.77C5378.01,2458.43 5265.23,2479.01 5144.27,2427.06C5092.09,2404.65 5028.11,2362.48 4965.75,2289.84C4911.9,2227.11 4873.86,2071.41 4844.34,1917.76C4823.63,1809.91 4814.74,1705.42 4774.65,1624.69C4753.45,1582.01 4783.95,1559.49 4794.75,1574.53ZM5455.43,2180.64C5418.79,2089.99 5306.81,2053.53 5213.38,2123.45C5140.29,2178.15 5190.69,2325.74 5294.11,2337.02C5368.91,2345.18 5403.05,2306.1 5387.99,2251.82C5376.34,2209.83 5315.6,2213.52 5310.52,2192.21C5297.7,2138.39 5389.89,2129.84 5455.43,2180.64ZM5974.12,2013.77C6162.73,2140.78 6213.76,2296.82 6222.51,2445.81C6231.71,2602.45 6190.53,2809.79 6007.31,2932.05C6015.63,2911.87 6022.83,2892.51 6028.36,2874.39C5820.28,3000.7 5578.91,3045.88 5361.06,2920.19C5586.51,2970.08 5830.81,2888.7 5939.61,2765.09C6039.73,2651.34 6113.27,2397.25 6015.57,2231.84C5974.29,2161.97 5920.13,2125.19 5858.58,2090.71C5696.78,2000.09 5487.68,2126.28 5260.79,1971.94C5234.88,1954.32 5223.55,1930.68 5216.86,1910.28C5208,1883.26 5230.92,1861.84 5233.03,1843.9C5235.44,1823.36 5216.99,1808.6 5202.1,1815.97C5160.95,1836.36 5154.46,1887.75 5157.14,1923.04C5160.8,1971.36 5174.27,2002.83 5243.93,2059.25L5186.16,2093.32C5105.17,2019.38 5106.11,1958.6 5106.54,1900.46C5106.9,1851.88 5127.51,1807.91 5171.97,1769.38C5211.93,1734.76 5281.33,1726.6 5346.35,1776.47C5397.27,1815.52 5404.11,1901.68 5314.49,1927.33C5415.61,1954.8 5533.49,1916.17 5683.3,1925.75C5796.57,1932.98 5901.56,1964.9 5974.12,2013.77ZM4711.62,2337.16C4927.18,2625 5115.82,2737.32 5337.11,2799.9C5481.43,2840.71 5618.5,2847.02 5727.08,2759.24C5604.85,2807.44 5495.94,2777.1 5408.69,2619.08C5179.01,2606.41 4985.59,2470.39 4813.91,2260.39C4807.01,2251.95 4788.76,2261.44 4797.24,2273.37C4904.03,2423.53 5034.78,2517.16 5153.56,2580.78C5014.19,2531.46 4886.39,2434.21 4771.57,2283.28C4761.93,2270.6 4730.77,2288.84 4743.79,2306.83C4817.7,2409 4909.97,2514.09 5037.81,2624.86C4924.85,2549.19 4817.84,2448.17 4725.89,2326.6C4719.41,2318.03 4704.22,2327.28 4711.62,2337.16ZM5150.79,2760.32C5288.71,2868.53 5432.31,2886.93 5556.69,2886.08C5663.17,2885.34 5760.3,2865.7 5849.23,2778.54C5945.09,2684.58 5926.1,2436.8 5781.3,2409.21C5707.89,2395.22 5628.99,2422.4 5566.61,2505.06C5500.32,2457.87 5549.17,2370.19 5665.12,2327.46C5736.56,2301.14 5843.36,2326.6 5909.91,2380.3C5919.1,2387.71 5943.17,2381.47 5948.97,2373.25C5975.35,2335.84 5884.63,2257.85 5823.18,2232.24C5771.46,2210.69 5694.48,2200.77 5620.91,2224.47C5504.16,2262.07 5424.04,2368.67 5416.42,2477.33C5411.19,2551.95 5449.77,2630.59 5491.45,2674.1C5522.64,2706.66 5568.57,2744.7 5656.6,2749.19C5735.22,2753.2 5787.51,2679.31 5789.48,2631.42C5791.02,2593.86 5710.88,2507.87 5628.53,2540.42C5713.6,2491.97 5751.88,2523.07 5783.61,2549.95C5808.78,2571.27 5830.84,2611.44 5813.66,2667.92C5778.25,2784.29 5656.78,2840.51 5540.41,2853.63C5432.93,2865.74 5295.88,2824.68 5150.79,2760.32ZM5392.33,2513.65C5394.8,2537.72 5397.51,2562.41 5401.04,2589.22C5355.1,2585.45 5309.55,2579.66 5265.22,2567.38C5314.66,2557.58 5356.39,2538.93 5392.33,2513.65ZM5014.04,1994.37C5036.78,2067.64 5072.37,2135.92 5133.02,2194.46C5139.52,2162.4 5148.2,2130.15 5160.56,2108.07C5103.88,2081.64 5056.8,2045.05 5014.04,1994.37ZM6119.86,2086.33C6145.63,2127.21 6170.76,2170 6195.24,2214.7C6180.64,2104.49 6230.63,1966.84 6292.43,1978.59C6309.13,1981.77 6307.02,1997.71 6309.35,2018.62C6311.97,2042.18 6245.45,2092.14 6316,2148.24C6386.53,2204.33 6472.3,2104.01 6482.03,2057.56C6493.52,2002.68 6480.38,1910.85 6388.88,1863.27C6272.68,1802.85 6127.34,1934.77 6119.86,2086.33ZM6336.44,2280.79L6404.6,2299.19C6412.77,2365.02 6397.28,2437.48 6357.76,2496.36C6359.67,2423.77 6354.72,2351.74 6336.44,2280.79ZM6128.07,2869.5C6150.55,2861.43 6355.66,2811.79 6377.54,2817.99C6371.32,2778.84 6147.2,2837.22 6128.07,2869.5ZM5641.66,3086.32C5715.69,3111.17 5789.84,3137.25 5864.1,3164.61C5847.36,3133.69 5824.08,3099.45 5797.92,3063.75C5743.84,3066.88 5692.13,3075.23 5641.66,3086.32ZM5889.74,3736.51C5939.35,3685.82 5973.55,3608.56 5973.19,3529.35C5972.5,3377.78 5940.89,3282.24 5891.59,3218.77C5888.41,3386.99 5895.88,3560.62 5889.74,3736.51ZM5989.59,3194.37C6044.54,3358.1 6096.49,3522.74 6103.28,3700.97C6116.63,3656.13 6122.9,3608.85 6123.5,3559.6C6141.24,3637.74 6151.46,3717.51 6090.09,3812.86C6045.88,3747.37 5994.91,3706.47 5916.94,3764.07C5823.43,3833.16 5842.03,4009.99 5970.62,4022.75C5893.07,3979.52 5892.71,3860.6 5945.15,3835.25C5982.71,3817.09 6034.39,3840.22 6078.94,3929.64C6149.82,3907.81 6189.53,3838.12 6200.73,3774.23C6214.81,3693.93 6197.85,3582.75 6176.41,3501.08C6241.08,3524.85 6291.26,3568.72 6322.03,3639.47C6374.03,3630.21 6426.03,3636.97 6478.02,3675.3C6506.64,3696.41 6671.85,3752.41 6704.11,3796.26C6725.61,3825.47 6740.7,3869.17 6739.35,3927.35C6737.61,4002.69 6715.32,4095.85 6716.38,4146.26C6717.28,4188.59 6812.9,4233.96 6846.32,4285.46C6870.08,4322.07 6888.07,4361.66 6898.63,4405.07C6959.97,4168.2 6937.41,3995.12 6840.63,3878.49C6795.81,3826.31 6746.86,3774.11 6684.38,3734.92C6586.23,3673.36 6518.33,3686.03 6523.81,3637.11C6527.11,3607.69 6581.76,3619.83 6627.04,3644.82C6602.11,3543.32 6492.81,3551.95 6374.19,3543.65C6315.49,3539.54 6247.34,3505.76 6208.99,3476.19C6117.34,3405.5 6043.23,3312.79 5989.59,3194.37ZM6312.78,3321.58C6234.51,3295.72 6173.1,3245.04 6207.17,3215.1C6234.49,3191.08 6283.08,3258.6 6312.78,3321.58ZM6164.02,3162.81C6268.23,3087.47 6379.53,3291.17 6571.97,3377.69C6671.96,3422.65 6782.84,3438.11 6873.11,3426.52C6796,3371.28 6742.89,3315.59 6706.37,3259.59C6642.57,3242.26 6601.59,3230.9 6560.11,3233.1C6513.14,3235.59 6471.72,3244.6 6435.42,3222.69C6398.99,3200.7 6391.9,3176.04 6402.32,3155.7C6427.35,3106.84 6510.05,3121.2 6578.66,3209.84C6628.39,3198.04 6675.19,3207.34 6720.19,3229.54C6816.79,3236.38 6908.22,3187.46 6975.97,3101.5C7069.14,2983.3 7058.46,2814.61 7015.34,2700.9C6964.97,2568.07 6802.27,2474.02 6646.13,2523.16C6470.61,2578.4 6351.58,2709.26 6377.54,2817.99C6401.41,2918.01 6559.18,2919.3 6604.06,2813.51C6646.18,2714.22 6540.33,2700.04 6539.79,2781.65C6489.2,2740.13 6533.77,2648.09 6618.94,2637.26C6722.89,2624.05 6828.49,2733.89 6831.87,2833.52C6833.92,2893.65 6823.42,3022.82 6746.18,3065.66C6661.99,3112.36 6597.8,3119.13 6517.88,3112.23C6329.17,3095.94 6225.37,2885.24 6180.53,2888.01C6153.02,2889.71 6122.44,2898.72 6099.62,2917.22C6047.83,2959.19 6042.55,2974.81 5977.22,3011.67C6076.76,3189.71 6170.18,3331.35 6249.6,3427.77C6292.78,3480.2 6358.58,3477.55 6455.4,3494.17C6377.1,3448.72 6332.34,3401.6 6328.41,3352.44C6193.24,3349.71 6100.18,3208.97 6164.02,3162.81ZM6553.48,3202.2C6502.89,3152.61 6434.78,3127.33 6425.06,3161.91C6419.55,3181.5 6428.98,3193.78 6445.19,3200.07C6466.98,3208.54 6500.22,3194.31 6553.48,3202.2ZM6737.89,3257.2C6808.26,3284.32 6880.31,3297.75 6957.38,3270.33C6951.05,3237.39 6952.38,3204.2 6958.86,3170.83C6890,3215.12 6816.94,3245.84 6737.89,3257.2ZM7309.73,3220.37C7263.45,3119.43 7176.83,3059.23 7085.18,3129.93C7048.01,3169.85 7054.21,3233.26 7107.26,3234.05C7125.7,3234.32 7132.24,3199.06 7149.35,3178.93C7161.73,3164.36 7183.04,3161.81 7202.08,3166.71C7225.3,3172.69 7257.89,3207.7 7262.61,3251.61C7268.64,3307.72 7238.66,3380.51 7187.73,3448.56C7120.73,3538.09 6986.22,3570.04 6867.57,3575.97C6797.66,3579.46 6722.68,3567.42 6640.98,3534.84C6741.08,3532.85 6837.26,3511.16 6924.03,3442.22C6902.85,3428.18 6886.74,3410.16 6872.04,3391.04C6969.56,3379.71 7157.35,3369.83 7198.03,3318.1C7218.45,3292.14 7240.72,3254.77 7204.44,3222.36C7195.73,3319.79 7100.51,3360.22 7011.43,3280.56C6938.68,3215.5 7009.24,3084.31 7090.67,3053.8C7199.42,3013.05 7305.94,3071.8 7309.73,3220.37ZM6696.47,4035.22C6720.28,3968.11 6711.78,3866.45 6670.99,3865.69C6651.58,3865.33 6644.12,3881.45 6645.1,3905.13C6646.6,3941.42 6679.2,3976.89 6696.47,4035.22ZM6473.6,4309.18C6505.01,4216.35 6481.23,4143.86 6502.46,4099.05C6515.58,4071.36 6534.27,4057.74 6560.59,4066.39C6633.99,4090.52 6560.15,4224.93 6473.6,4309.18ZM6434.6,3914.81C6461.55,3829.97 6449.5,3655.36 6368.04,3670.34C6343.28,3674.89 6336.19,3706.01 6346.02,3740.39C6361.89,3795.83 6412.5,3868.2 6434.6,3914.81ZM6450.05,3684.25C6498.92,3719.8 6554.64,3748.34 6618.53,3768.5C6560.2,3813.38 6504.98,3863 6518.66,4018.05C6498.42,4041.71 6483.3,4075.12 6470.2,4115.27C6442.43,4200.39 6463.1,4301.1 6431.83,4352.06C6357.09,4473.88 6214.94,4482.05 6170.49,4435.54C6143.86,4407.67 6083.6,4380.15 6127.01,4280.48C6095.7,4256.64 6056.5,4249.07 6011.84,4252.75C5957.69,4200.77 5881.19,4293.67 5908.58,4399.84C5799.04,4130.31 6033.19,4028.46 6095.02,4050.08C6116.43,4057.57 6164.55,4074.64 6161.05,4136.58C6192.48,4120.27 6225.16,4105.6 6251.73,4129.63C6275.24,4150.88 6269.41,4191.5 6248.15,4222.57C6208.62,4280.37 6130.06,4332.86 6188.59,4361.65C6267.48,4400.46 6370.92,4270.28 6415.56,4153.32C6458.56,4040.63 6491.89,3822 6450.05,3684.25ZM6222.65,3853.41C6239.01,3921.71 6215.98,4001.11 6176.69,4085.09C6163.74,4067.75 6147.99,4052.38 6128.52,4039.64C6173.93,3988.85 6200.93,3923.26 6222.65,3853.41ZM6756.88,4275.3C6803.43,4408.93 6751.47,4519.16 6659.72,4619.94C6958.09,4556.79 7043.79,4418.07 7060.75,4287.75C7070.52,4212.68 7050.95,4109.61 6974.66,4043.17C6990.92,4215.16 6980.78,4371.93 6879.64,4476.25C6861.55,4380.97 6843.67,4285.42 6756.88,4275.3ZM6614.73,4280.69C6719.27,4370.16 6690.03,4504.33 6584.77,4663.91C6620.57,4673.9 6652.59,4688.83 6680.72,4708.87C6650.53,4753.13 6612.18,4792.37 6567.93,4827.98C6451.71,4921.54 6297.45,4928.53 6138.4,5058.89C6079.44,4975.14 6036.06,4913.92 6042.19,4855.68C6049.14,4789.67 6099.52,4734.44 6174.2,4685.26C6124.78,4751.85 6139.37,4803.45 6158.37,4839.61C6176.64,4874.38 6233.33,4915.32 6304.37,4886.48C6388.83,4852.19 6541.3,4706.04 6593.89,4523.67C6605.39,4483.78 6501.84,4646.97 6406.86,4730.26C6365.31,4766.7 6322.73,4782.89 6296.62,4768.44C6258.64,4747.42 6292.44,4666.73 6355.11,4630.56C6431.07,4586.72 6537.06,4510.68 6553.26,4459.26C6562.67,4429.37 6562.62,4411.02 6549.39,4385.37L6614.73,4280.69ZM6397.57,4523.12C6385.94,4547.23 6369.1,4569.46 6346.36,4589.54C6379.95,4575.27 6413.32,4547.15 6446.15,4487.02C6476.1,4455.97 6503.19,4428.37 6528.63,4402.75C6550.99,4456.39 6489.25,4541.12 6327.62,4621.43C6316.49,4626.96 6294.18,4582.32 6297.85,4571.13C6300.27,4563.74 6365.86,4539.19 6397.57,4523.12ZM6047.97,4665.87C5953.11,4719.51 5845.03,4782.15 5811.53,4942.36C5802.95,4983.4 5880.16,5082.16 5888.85,5214.31C5968.64,5138.04 5904.06,4984.57 5957.25,4838.61C5980.32,4775.31 6010.09,4717.34 6047.97,4665.87ZM5849.82,5156.87C5693.5,5386.7 5649.2,5783.7 5794.18,6124.9C5803.17,6046.89 5816.21,5969.43 5837.06,5893.04C5797.62,5683.84 5807.99,5473.52 5872.07,5261.98L5849.82,5156.87ZM5980.73,5396C5982.64,5450.94 5990.48,5504.44 6009.94,5555.17L5963.88,5595.21C5949.42,5522.37 5959.58,5457.42 5980.73,5396ZM6019.47,5328.78C5995.38,5447.4 6018.06,5553.37 6120.55,5637.77C6143.56,5611.24 6168.94,5592.29 6196.03,5578.83C6162.99,5561.09 6135.71,5535.5 6118.64,5495.97C6196.46,5492.61 6238.52,5456.46 6264.23,5405.33C6186.65,5412.65 6129.57,5380.15 6103.59,5287.27C6076.57,5301.49 6068.44,5332.54 6070.74,5372.86C6053.01,5358.46 6035.99,5343.74 6019.47,5328.78ZM6179.08,5085.03C6133.13,5177.56 6118.87,5264.84 6162.33,5342.59C6268.05,5213.78 6367.97,5075.44 6464.77,4931.97C6364.82,4976.81 6187.83,5067.43 6179.08,5085.03ZM6310.44,5186.84L6184.06,5361.75C6260.9,5406.34 6323.1,5347.79 6376.03,5223.9C6353.13,5212.59 6331.01,5200.5 6310.44,5186.84ZM6957.63,4724.86C6930.6,4767.93 6904.27,4833.9 6923.69,4915.06L6975.26,4887.7C6953.55,4827.04 6949.86,4773.64 6957.63,4724.86ZM6843.03,5061.65C6773.48,4970.33 6807.69,4830.91 6877.27,4749.33C6869.41,4811.21 6870.29,4867.46 6886.8,4913.67C6894.76,4935.97 6912.86,4995.72 6929.65,4967.77C6968.74,4902.73 7050.28,4869.29 7100.69,4939.98C7127.07,4976.97 7123.9,5039.58 7084.82,5091.83C7089.46,5021.38 7072.64,4957.05 7015.54,4979.49C6988.69,4990.04 7038.14,5064.49 6988.01,5091.69C6934.61,5120.67 6879.72,5109.82 6843.03,5061.65ZM6814.76,6591.46C6823.91,6597.69 6842.26,6587.84 6850.39,6572.8C6860.46,6554.17 6841.4,6538.39 6870.83,6518.01C6894,6501.96 6919.98,6528.53 6919.03,6554.74C6917.26,6603.64 6830.8,6667.09 6767.6,6635.25C6630.64,6566.23 6719.59,6390.86 6821.48,6362.45C6887.61,6344.01 6962.64,6380.32 6999.86,6421.03C7042.22,6467.37 7074.96,6542.32 7052.64,6630.79C7027.96,6498.43 6934.73,6393.24 6837.08,6438.02C6776.33,6465.88 6751.43,6548.32 6814.76,6591.46ZM6151.94,6575.15C6045.07,6475.13 5994.19,6352.41 5979.58,6238.72C5957.59,6067.55 5978.77,5850.24 6094.69,5716.99C6094.52,5701.24 6101.24,5690.87 6106.07,5679.9C6069.56,5645.58 6041.73,5616.36 6017.97,5589.22C5842.09,5773.09 5809.21,6049.33 5849.47,6269.69C5879.07,6431.69 5957.19,6621.77 6128.86,6742.92C6039.11,6631.41 6061.25,6576.51 6093.74,6614.36C6304.87,6860.4 6437.38,6852.2 6582.32,6870.42C6738.28,6890.01 6943.16,6767.04 6933.03,6583.6C6901,6623.63 6864.82,6656.02 6816.05,6665.3C6703.91,6747.71 6567.66,6753.38 6444.28,6731.85C6346.4,6714.76 6248.91,6665.9 6151.94,6575.15ZM6457.05,6483.39C6474.96,6472.8 6506.16,6513.78 6482.65,6548.32C6457.23,6585.67 6367.49,6636.79 6224.69,6596.59L6359.41,6677.42C6513.26,6661.63 6580.36,6600.2 6604.78,6544.66C6628.28,6491.21 6605.99,6363.59 6522.73,6354.43C6427.55,6343.97 6341.38,6410.11 6278.43,6363.07C6210.53,6312.35 6276.36,6217.57 6342.38,6125.61C6322.76,6111.86 6306.65,6096.28 6294.69,6078.56C6217.76,6100.22 6147.88,6093.93 6090.36,6038.68C6016.81,6164.79 6090.9,6346.28 6159.44,6431.29C6212.24,6496.78 6329.38,6558.9 6457.05,6483.39ZM6287.95,6311.47C6278.68,6322.24 6288.56,6349.44 6303.35,6352.54C6325.64,6357.2 6418.78,6333.63 6472.76,6336.16C6424.08,6291.86 6322.88,6270.86 6287.95,6311.47ZM6297.85,6237.8C6321.34,6199.79 6348.9,6152.65 6390.16,6145.93C6434.83,6138.66 6486.19,6114.2 6521.64,6076.09C6580.97,6012.3 6617.2,5920.74 6660.02,5884.2C6767.65,5792.36 6850.98,5822.32 6929.22,5773.54C6966.34,5750.4 7000.11,5723.79 7029.46,5692.61C6940.07,5835.73 6880.44,6015.56 6776.29,6100.33C6718.95,6146.99 6653.96,6173.88 6578.61,6173.95C6597.67,6200.81 6637.64,6202.46 6690.93,6188.1C6665.82,6213.19 6637.86,6223.69 6599.8,6233.97C6520.14,6255.48 6458.55,6201.73 6297.85,6237.8ZM6087.98,5753.65C6088.43,5817.01 6123.67,5845.27 6151.42,5858.29C6180.28,5871.84 6233.49,5864.84 6266.16,5830.11C6278.75,5893.02 6200.07,5935.31 6118.05,5887.18C6052.94,5848.98 6057.41,5801 6087.98,5753.65ZM6251.76,5739.15C6267.88,5798.48 6204.44,5858.49 6142.93,5812.99C6101.49,5782.33 6104.88,5707 6139.29,5660.58C6177.99,5608.39 6244.87,5566.46 6335.85,5583.35C6417.59,5598.53 6496.69,5652.73 6527.08,5720.29C6550.84,5773.1 6549.39,5842.47 6511.44,5935.82C6527.94,5808.42 6457.82,5626.84 6368.73,5650.35C6320.8,5663 6320.6,5713.88 6423.8,5770.13C6450.55,5784.7 6463.47,5856.03 6435.56,5907.22C6404.88,5963.49 6355.2,5994.64 6298.07,6009.05C6255.49,6019.8 6161.49,6023.73 6136.85,5936.95C6223.5,5956.75 6269.34,5914.76 6285.73,5885.05C6306.04,5848.23 6317.55,5768.01 6251.76,5739.15ZM6446.84,5527.42C6477.16,5558.22 6486.83,5589.18 6477.49,5620.28C6448.46,5594.07 6412.41,5576.37 6370.34,5565.99C6399.49,5556.43 6425.13,5543.7 6446.84,5527.42ZM6499.58,5634.55C6584.79,5606.85 6645.19,5541.61 6683.71,5456.51C6625.32,5459.38 6566.66,5441.86 6531.71,5401.21C6495.06,5358.59 6485.49,5282.3 6524.73,5233.27C6585.65,5157.14 6680.85,5160.1 6802.5,5224.11C6881.52,5265.69 6918.93,5415.05 6904.02,5496.06C6888.48,5580.46 6819.4,5654.27 6694.85,5717.12C6862.51,5596.31 6848.77,5455.46 6834.09,5382.07C6827.07,5346.95 6781.44,5296.98 6730.11,5275.56C6684.2,5256.41 6632.29,5261.41 6622.73,5298.99C6614.37,5331.87 6655.43,5347.08 6702.54,5346.31C6768.71,5378.74 6767.04,5475.73 6745.81,5533.05C6721.76,5598.01 6654.63,5657.64 6545.58,5710.23C6534.41,5683.89 6519.53,5658.55 6499.58,5634.55ZM4058.9,1077.88C4112.93,1073.32 4221.98,1054.83 4296.14,1071.65C4317.06,1076.39 4313.01,1089.37 4326.07,1102.52C4346.62,1123.21 4378.84,1148.01 4384.51,1164.13C4358.87,1169.51 4269.13,1172.19 4246.41,1182.42C4156.36,1166.43 4070.51,1186.79 3988.77,1222.32C3926.25,1211.1 3936.22,1196.69 3878.36,1215.23C3966.6,1159.43 4020.34,1081.14 4058.9,1077.88ZM4563.24,2079.35C4556.76,2087.79 4546.92,2073.08 4548.32,2053.41C4549.36,2038.82 4556.01,2024.41 4563.27,2014.76C4585.43,1985.32 4601,1990.75 4594.47,2014.69C4587.27,2041.07 4578.4,2059.62 4563.24,2079.35ZM4552.7,2257.69C4576.07,2339.12 4609.59,2397.4 4652.71,2453.92C4668.15,2474.16 4684.04,2458.84 4667.34,2438.28C4624.9,2386.03 4601.54,2319.84 4574.76,2253.97C4567.23,2235.46 4546.77,2237.04 4552.7,2257.69ZM4678.05,2400.54C4671.57,2383.39 4658.32,2360.02 4648.43,2340.21C4642.64,2328.6 4625,2328.93 4630.29,2351.66C4635.53,2374.14 4647.64,2390.11 4666.93,2409.82C4676.29,2419.39 4682.35,2411.89 4678.05,2400.54ZM4702.47,2484.28C4655.47,2476.01 4607.02,2481.86 4556.83,2504.68C4545.49,2509.84 4554.52,2530.96 4565.95,2535.68C4578.02,2540.66 4601.76,2528.69 4632.78,2529.11C4663.31,2529.52 4674.73,2540.03 4601.6,2546.14C4581.54,2547.82 4570.41,2579.4 4597.34,2587.68C4611.66,2592.09 4617.87,2579.16 4610.2,2564.62C4603.97,2552.79 4648.57,2571.78 4664.57,2565.98C4675.39,2562.05 4691.9,2550.24 4692.35,2539.3C4692.53,2534.61 4684.83,2528.84 4677.66,2524.92C4688.42,2524.29 4702.46,2524.72 4709.01,2521.16C4720.36,2514.98 4714.38,2495.11 4702.47,2484.28ZM4747.19,2567.04C4770.7,2623.75 4802.02,2668.34 4848.36,2723.31C4918.14,2806.09 5058.15,2900.33 5126.32,2977.93L5200.23,2976.65C5187.04,2943.66 5109.81,2902.61 5032.51,2844.96C4969.71,2798.13 4909.01,2738.99 4860.36,2689.38C4822.61,2650.89 4784.54,2609.76 4747.19,2567.04ZM4198.37,7026.96C4206.93,6758.3 4200.83,6439.84 4195.46,6170.47C4184.98,6163.64 4177.86,6152.65 4165.6,6144.55C4161.93,6174.01 4153.69,6197.21 4131.81,6201.71C4112.9,6184.75 4100.77,6167.37 4097.84,6149.43L4087.03,6142.88C4085.19,6152.99 4081.06,6160.41 4073.32,6163.62C4058.3,6169.85 4039.15,6120.6 4031.53,6086.43C4011.06,6054.02 4010.85,6008.85 4026.4,5982.67C4052.64,5938.5 4116.67,5914.13 4199.81,5900.04C4197.46,5842.3 4201.19,5786.99 4194.5,5726.7C4158.89,5746.14 4123.55,5757.96 4089,5748.05L4095.58,5710.65C4066.98,5721.47 4036.18,5729.23 3997.5,5726.13C3981.01,5732.97 3964.15,5748.24 3946.98,5770.51C3919.49,5743.49 3911.1,5708.48 3929.94,5662.07L3895.94,5666.26C3894.78,5648.5 3896.17,5629.9 3899.22,5610.77C3874.76,5620.29 3850.17,5628.15 3824.97,5627.52C3816.61,5611.3 3807.96,5595.64 3798.47,5581.61L3757.3,5608.91C3740.61,5594.1 3726.11,5579.34 3715.23,5564.65C3707.89,5581.58 3698.97,5596.13 3687.23,5606.45C3658.32,5576.47 3637.62,5541.3 3630.33,5497.63L3583.95,5509.25C3574.71,5483.81 3582.73,5455.41 3595.43,5426.19C3627.82,5374.07 3665.97,5329.43 3728.78,5316.77C3765.59,5309.36 3809.18,5313.77 3855.34,5324.29C3917.04,5338.36 3978.09,5374.26 4044.12,5385.55C4057.43,5387.82 4057.32,5345.18 4057.43,5321.08L4035.82,5320.39C4033.26,5284.38 4048.73,5259.61 4067.84,5235.48C4091.32,5205.84 4134.36,5219.18 4152.64,5187C4092.82,5166.37 4043.54,5162.64 4001.29,5133.25C3967.44,5109.7 3942.76,5077.45 3918.09,5036.95C3859.21,5100.16 3782.52,5149.62 3667.76,5169.69C3649.21,5204.91 3616.16,5232.68 3551.49,5244.23C3553.85,5260.71 3547.72,5274.11 3526.37,5281.95C3514.14,5267.76 3505.23,5253.62 3500.81,5239.56L3452.78,5261.62C3443.99,5253.39 3439.08,5241.1 3435.67,5227.24C3418.8,5240.23 3400.55,5251.31 3375.58,5253.15L3339.89,5312.4C3322.8,5308.32 3308.93,5301.48 3297.73,5292.34L3306.26,5335.19C3268.36,5333.6 3235.85,5319.27 3216.08,5274.81L3185.28,5263.25C3181.39,5286.29 3176.28,5307.96 3167.51,5325.51C3134.42,5312.03 3108.43,5284.94 3086,5251.01C3067.42,5232.43 3060.55,5206.33 3055.39,5180.57C3028.76,5140.71 3075.78,5097.79 3128.29,5051.89C3165.7,5019.19 3246.52,5031.42 3292.91,5009.2C3306.08,5002.89 3322.6,4998.74 3333.23,4990.04C3351.1,4975.43 3373.13,4941.22 3395.13,4919.53C3420.87,4894.14 3429.41,4883.62 3455.02,4859.15L2800.01,4868.37C2804.57,5177.69 2807.02,5501.93 2833.43,5811.7C2862.84,6156.69 3559.51,6740.31 4198.37,7026.96ZM5586,4756.77C5579.27,4233.27 5568.09,3592.58 5571.09,3128.54C5254.21,3120.09 5008.39,3118.42 4664.93,3123.17C4537.19,3167.25 4387.57,3226.97 4239.49,3291.01L4231.15,3603.41C4249.68,3580.82 4274.66,3556.08 4309.17,3565.87C4351.02,3577.75 4356.26,3623.46 4356.26,3675.73C4385.96,3692.88 4413.71,3715.74 4439.76,3743.57C4495.63,3803.27 4576.57,3972.56 4600.83,3996.2C4708.08,4100.71 4800.43,4184.69 4848.61,4255.44C4877.16,4297.37 4881.93,4344.98 4854.1,4372.96C4815.64,4411.64 4782.08,4411.11 4714.55,4390.55C4653.25,4371.89 4602.35,4417.32 4548.27,4413.86C4521.7,4412.17 4494.76,4406.18 4467.31,4394.4C4523.79,4453.74 4612.7,4492.47 4706.97,4497.13C4690.54,4526.08 4671.95,4553.16 4645.71,4573.63C4718.01,4631.19 4797.35,4664.17 4882.48,4676.92C4867.21,4700.61 4846.11,4720.43 4817.37,4735.17L4842.08,4760.33C5087.46,4759.82 5366.75,4758.21 5586,4756.77Z" style="fill:rgb(255,208,45);"/>
        <path id="Dark-Grey" serif:id="Dark Grey" d="M4256.64,7027.06C4820.57,6697.37 5500.36,6043.78 5573.22,5709.54C5594.02,5614.11 5592.74,5259.51 5587.31,4809.73L4890.76,4814.29C4982.05,4932.12 5058.71,5030.86 5126.52,5157.2C5141.31,5184.76 5129.58,5231.98 5122.78,5277.23C5160.31,5381.96 5162.34,5494.62 5196.69,5583.06C5207.41,5610.65 5219.61,5636.17 5233.82,5658.92C5217.35,5657.42 5200.93,5653.82 5184.57,5646.8C5212.54,5739.61 5255.5,5824.11 5344.79,5882.9C5274.83,5919.2 5190.98,5910.38 5090.21,5846.64C5088.08,5867.45 5086.18,5886.77 5084.61,5903.99C5041.02,5897.99 5010.55,5852.93 4990.07,5778.13L4921.71,5927.57C4818.61,5954.12 4722.61,6010.38 4629.87,6080.2C4619.99,6071.66 4611.91,6060.88 4605.73,6047.71C4562.85,6069.84 4519.89,6091.85 4475.16,6111.26C4457.98,6106.73 4450.32,6093.26 4450.01,6072.88C4414.39,6108.87 4377.06,6137.5 4334.5,6143.76C4305.7,6148 4285.84,6151.36 4251.17,6130.45C4255.33,6422.71 4259.39,6753.52 4256.64,7027.06ZM4184.21,3314.53C4067.98,3366.53 3958.76,3418.23 3847.57,3483.39C3758.67,3361.86 3681.34,3243.57 3617.43,3129.06C3359.54,3127.68 3111.41,3156.07 2801.15,3200.54C2798.9,3743.48 2794.24,4272.38 2800.75,4815.82L3420.81,4811.99C3368.81,4785.91 3337.58,4763.1 3300.13,4732.82L3314.86,4707.21C3259.22,4662.12 3201.51,4616.24 3167.95,4579.72L3188.79,4549.9C3109.85,4503.06 3046.44,4443.47 3030.84,4344.6L3058.59,4342.17C3041.78,4280.58 3037.47,4220.57 3023.54,4158.17C3021.78,4150.28 2989.25,4146.47 2978.5,4132.86C2968.87,4120.67 2963.01,4103.92 2961.79,4081.54C2953.63,4045.81 2938.28,4010.53 2918.75,3975.51C2936.56,3970.83 2955.97,3974.64 2975.99,3981.72C2977.55,3936.26 2963.91,3890.31 2938.11,3843.97C2955.15,3830.35 2977.53,3833.78 3002.07,3844.12C2997.54,3823.1 2988.18,3801.34 2975.96,3779.15C3012.11,3767.88 3045.27,3780.42 3077.13,3803.35C3113.6,3829.6 3171.92,3952.98 3208.34,4050.19C3219.74,4080.6 3279.38,4144.88 3321.44,4180.77C3371.61,4223.57 3425.26,4248 3488.37,4280.4C3501.81,4202.95 3518.12,4132.29 3536.49,4066.49L3505.58,4069.7C3494.86,3994.75 3536.59,3926.19 3614.13,3920.89C3663.64,3830.3 3733.9,3761.73 3838.58,3729.7C3849.92,3688.63 3875.76,3654.7 3909.68,3643.03C3934.15,3634.62 3969.81,3633.26 4004.41,3653.68C4062.78,3633.67 4118.9,3614.07 4177.41,3610.73C4177.95,3531.08 4182.1,3389.05 4184.21,3314.53Z" style="fill:rgb(63,63,63);"/>
        <path id="Black" d="M3192.05,4269.68C3173.92,4295.34 3161.68,4321.65 3176.38,4350.95C3203.42,4352.27 3226.09,4359.86 3242.83,4375.96C3238.7,4479.91 3288.59,4562.05 3367.62,4632.41L3361.26,4640.58C3402.87,4670.53 3446.56,4698.44 3491.04,4725.58C3517.2,4726.61 3539.84,4733.76 3557.88,4748.97C3572.33,4660.27 3568.48,4592.29 3558.62,4531.13C3552.91,4541.15 3545.84,4549.8 3535.91,4555.57C3497.28,4480.46 3487.54,4395.92 3487.3,4308.28C3363.57,4252.13 3262.03,4180.45 3196.38,4083.66L3187.08,4144.3C3169.5,4143.2 3157.47,4145.76 3146.11,4148.58C3134.32,4151.5 3174.39,4221.94 3192.05,4269.68ZM3818.84,4879.37C3780.97,4931.6 3721.95,4933.02 3675.86,4969.57C3637.86,4999.69 3632.45,5028.65 3582.49,5064.48C3557.99,5082.05 3521.53,5100.71 3493.63,5110.43C3466.68,5119.81 3425.38,5131.41 3392.74,5135.99C3368.34,5139.41 3357.17,5136.86 3347.16,5140.37C3338.96,5143.24 3341.74,5158.94 3340.95,5174.19C3340.38,5185.14 3336.47,5196.83 3332.29,5198.84C3294.91,5216.8 3265.24,5223.29 3233.85,5222.12C3215.46,5210.08 3204.2,5196.76 3194.54,5183.15C3184.37,5192.38 3176.58,5203.06 3170.9,5215.05C3139.6,5210.76 3110.23,5203 3081.43,5194.22C3085.08,5206.1 3090.81,5217.44 3099.23,5228.06C3131.49,5219.48 3158.68,5223.45 3181.46,5238.31C3205.36,5239.9 3221.09,5246.74 3234.39,5255.14C3249.56,5245.31 3264.72,5242.6 3279.88,5243.88C3302.06,5215.35 3332.64,5216.99 3366.64,5230.89C3396.72,5225.72 3417.51,5212.3 3435.49,5196.36C3448.94,5177.78 3463.84,5172.73 3480,5179.38C3494.7,5185.43 3512.73,5187.3 3527.07,5225.23C3562.08,5220.66 3590.52,5210.88 3611.93,5195.51C3630.1,5182.47 3638.16,5163.09 3645.91,5141.79C3735.72,5127.19 3808.77,5103.3 3855.92,5062.48C3915.27,5011.09 3987.69,4929.3 3948.93,4856.01C3960.45,4832.4 3975.51,4813.31 3993.16,4797.51C4008.41,4783.87 4025.59,4772.69 4044.08,4763.19C4071.32,4749.21 4105.59,4749.42 4132.4,4729.66C4127.04,4718.82 4132.7,4688.56 4131.57,4667.06C4130.79,4652.15 4123.81,4643.38 4118.8,4639.53C4068.35,4691.93 4016.81,4721.61 3963.91,4723.24C3946.64,4723.77 3915.33,4723.14 3891.81,4708.81C3874.17,4698.07 3859.05,4671.51 3845.03,4662.66C3826.73,4651.11 3819.18,4648.02 3819.12,4656.99C3818.83,4696.69 3835.7,4744.59 3836.92,4789.01C3837.69,4817.36 3842.71,4846.44 3818.84,4879.37ZM4158.84,5157.57C4178.19,5163.12 4197.71,5169.74 4217.31,5177.05C4236.56,5184.22 4262.28,5205.55 4275.27,5200.12C4289.29,5204.04 4308.84,5178.11 4334.99,5184.34C4341.57,5149.09 4332.33,5113.92 4313.66,5088.78C4289.45,5056.19 4249.58,5059.36 4210.4,5006.28C4188.4,4976.46 4185.29,4940.92 4182.36,4906.78C4176.81,4842.04 4187,4781.25 4168.32,4756.48C4162.01,4748.1 4158.98,4744.69 4150.38,4747.58L4126.91,4764.44C4124.1,4798.84 4117.41,4834.22 4105.31,4868.45C4098.72,4887.09 4095.16,4912.45 4081.36,4931.16C4061.65,4957.87 4028.92,4961.12 4034.83,5003.77C4041.66,5052.94 4112.71,5075.08 4138.86,5116.49C4147.07,5129.49 4153.9,5143.11 4158.84,5157.57ZM3774.8,5437.21C3778.22,5445.12 3783.01,5452.42 3785.54,5460.58C3788.69,5470.73 3789.33,5481.81 3791.18,5492.32C3792.89,5502.02 3795.1,5511.62 3795.78,5521.61C3796.3,5529.43 3795.49,5537.58 3795.42,5545.56C3801.58,5548.62 3807.72,5552.65 3813.81,5558.49C3838.45,5564.61 3863,5571.84 3887.03,5586.3C3901.15,5583.78 3919.83,5581.26 3933.63,5579.18C3939.38,5578.31 3952.11,5590.86 3959.25,5607.71C3966.1,5623.89 3967.65,5644.06 3960.28,5658.7L3988.89,5700.2C4013.81,5701.28 4038.74,5699.9 4063.68,5695.41C4083.88,5691.78 4101.3,5681.47 4121.52,5673.43C4129.32,5685.93 4128.65,5703.52 4120.77,5725.44C4153.68,5714.11 4180.48,5700.23 4205.99,5677.7C4219.25,5665.98 4262.32,5674.93 4302.64,5680.19C4316.07,5681.95 4334.37,5661.25 4360.14,5647.93C4376.24,5639.6 4394.35,5635.7 4412.97,5633.01L4393.82,5592.41L4307.07,5579.5C4295.63,5434.46 4305.39,5334.66 4281.64,5304.95C4271.81,5292.65 4259.62,5288.28 4244.06,5287.54C4188.01,5284.9 4171.49,5378.56 4172.4,5504.17C4172.46,5512.87 4132.15,5506.73 4110.75,5507.22C4095.55,5507.57 4079.95,5508.61 4063.82,5510.57C4049.64,5512.28 4024.69,5459.67 4007.19,5461.28C3988.31,5463.02 3954.93,5480.19 3918.51,5474.11C3883.49,5468.26 3847.55,5440.64 3810.87,5438.57C3798.97,5437.9 3786.96,5437.43 3774.8,5437.21ZM4250.57,5702.71L4254.61,5881.58C4338.32,5865.9 4401.24,5829.07 4465.01,5780.26C4457.93,5772.09 4455.52,5761.71 4456.38,5749.77C4457.84,5729.66 4468.64,5705.13 4482.17,5679.29C4491.1,5662.26 4492.7,5635.86 4472.66,5614.07C4460.15,5629.24 4446.01,5643.97 4429.91,5658.16C4422.04,5665.09 4393.71,5665.56 4376.18,5672.77C4356.48,5680.86 4337.24,5691.79 4318.4,5705.16M4824.13,5789.41C4833.1,5781.74 4821.12,5753.96 4806.54,5733.91C4839.26,5734.3 4863.42,5724 4879.09,5705.55C4895.86,5685.8 4911.35,5651.3 4903.57,5617.75C4892.91,5571.81 4917.59,5489.85 4899.23,5500.7C4881.28,5511.31 4859.14,5523.22 4851.97,5511.72C4843.11,5497.52 4868.43,5458.87 4893.53,5420.39C4904.89,5306.48 4899.09,5202.49 4876.95,5107.97C4854.73,5013.07 4818.43,4887.67 4761.68,4851.37C4747.18,4869.59 4731.78,4888 4715.05,4906.7C4726.42,4870.05 4732.95,4824.67 4722.96,4809.47C4692.35,4762.93 4659.68,4723.35 4625.21,4689.74C4586.76,4652.25 4539.47,4600.23 4505.94,4602.94C4482.08,4604.87 4460.54,4646.09 4441.64,4675.56C4462.02,4547.16 4422.44,4483.59 4343.77,4427C4264.26,4369.8 4196.15,4361.82 4138.7,4399.84C4116.94,4379.68 4089.84,4354.2 4089.52,4338.6C4088.52,4289.44 4076.73,4229.25 4055.78,4204.73C3999.38,4171.01 3975.95,4138.32 3965.35,4087.7C3946.06,3995.55 4044.6,3848.07 4021.69,3830.22C3980.24,3797.91 3963.17,3774.82 3994.1,3762.16C4018.82,3752.03 4041.55,3748.99 4058.63,3756.76C4083.18,3767.91 4098.82,3797.51 4115.12,3827.99C4125.93,3848.18 4127.46,3864.11 4141,3869.33C4153.42,3874.13 4169.85,3871.95 4189.89,3863.47C4214.85,3878.09 4236.47,3895.78 4254.59,3916.69C4226.4,3932.24 4216.94,3964.78 4212.01,4001.4C4168.22,3992.2 4149.31,4005.28 4130.72,4023.87C4112.14,4042.45 4107.2,4078.24 4112.48,4121.6C4118.88,4174.21 4155.54,4239.32 4207.74,4272.77C4239.29,4292.99 4293.6,4329.49 4337.46,4340.87C4373.67,4350.26 4407.83,4339.72 4427.73,4349.53C4442.44,4356.78 4417.35,4381.76 4432.28,4400.4C4494.27,4477.77 4573.19,4507.37 4658.43,4519.17C4642.77,4537.27 4624.72,4553.4 4604.17,4567.49C4675.89,4642.19 4751.29,4687.6 4831.72,4693.06C4814.76,4706.16 4793.23,4725.22 4776.43,4734.04C4814.89,4772.69 4863.95,4823.71 4895.41,4870.86C4965.12,4975.34 5009.49,5083.24 5055.5,5216.47C5099.15,5342.87 5135.44,5478.19 5170.68,5614.79L5152.6,5612.24C5156.78,5688.48 5189.38,5757.14 5232.8,5822.92C5207.57,5812.15 5183.3,5798.36 5160.32,5780.52L5141.25,5782.63C5133.83,5766.42 5124.28,5752.78 5113.37,5740.79C5121.41,5714.91 5124.83,5688.07 5115.03,5665.27C5100.12,5646.71 5085.99,5626.52 5072.44,5605.11C5051.13,5571.46 5034.74,5519.78 5012,5496.89C4978.11,5537.75 4964.89,5579.22 4963.15,5616.63C4962.49,5630.97 4963.71,5654.78 4972.74,5671.27C4985.1,5693.86 5005.97,5707.79 5000.61,5711.32L4988.81,5718.82C4957.81,5783.62 4928.54,5846.87 4900.34,5909.15L4639.91,6046.29C4635.01,6034.05 4631.66,6022.77 4629.06,6011.94L4562.77,6039.04C4547.98,6006.89 4462.8,6030.13 4459.25,6045.85C4408.61,6064.02 4357.58,6125.36 4323.92,6122.27C4298.82,6119.96 4287.69,6111.52 4267.64,6097.97C4243.48,6081.63 4223,6062.94 4218.14,6070.56C4212.71,6079.08 4207.07,6088.06 4200.77,6098.49L4174.36,6095.78C4162.76,6077.68 4160.5,6062.34 4169.62,6050.35C4177.12,6040.5 4191.52,6030.58 4216.24,6027.9C4292.55,6019.61 4371.92,6009.3 4446.64,5997.99C4490.91,5991.29 4539.64,5988.2 4582.24,5970.42C4628.01,5951.31 4664.72,5927.65 4707.85,5892.59C4684.08,5878.25 4661.51,5862.86 4641.26,5845.44C4715.69,5850.52 4774.62,5831.76 4824.13,5789.41ZM4335.96,3945.29C4298.48,3942.27 4259.54,4007.19 4296.73,4040.11C4311.16,4052.88 4352.95,4039.9 4363.22,4013.09C4373.34,3986.7 4352.19,3946.59 4335.96,3945.29ZM4409.96,4035.48C4381.75,4027 4365.23,4064.84 4394.81,4081.72C4477.1,4128.69 4529.28,4182.86 4592.12,4255.62C4603.06,4268.28 4626.02,4270.21 4634.18,4256.5C4640.32,4246.17 4637.3,4229.27 4632.28,4222.03C4567.92,4129.23 4505.57,4064.19 4409.96,4035.48ZM2825.37,6954.07L2696.26,6858.24L2674.56,6881.79C2690.8,6892.57 2701.09,6902.77 2701.75,6915.96C2702.44,6929.51 2693.31,6938.25 2673.35,6963.13L2519.51,7156.59C2500.61,7175.59 2490.93,7195.78 2458.75,7166.78L2436.08,7186.8L2561.03,7280.04L2580.61,7258.11C2558.95,7241.77 2549.81,7223.84 2572.59,7201.84L2645.17,7110.58L2742.4,7179.02L2672.64,7274.51C2657.78,7297.93 2639.83,7305.76 2614.95,7278.59L2593.18,7301.66L2718.67,7399.01L2741.74,7369.85C2717.02,7356.2 2702.57,7340 2731.26,7313.09L2906.54,7093.87C2922.06,7072.44 2937.76,7069.38 2954.99,7088.75L2980.75,7062.67C2938.65,7035.2 2897.4,7005.46 2856.99,6973.46L2837.84,6995.67C2861.43,7011.84 2873.18,7030.64 2847.27,7057.87L2779.02,7144.73L2681.96,7072.4L2754.91,6976.75C2769.51,6963.74 2785.43,6965.41 2802.37,6978.52L2825.37,6954.07ZM3003.34,7072.97L2985.79,7099.79C3012.81,7110.8 3023.18,7130.74 2998.65,7169.44C2910.39,7332.7 2813.69,7453.08 2960.44,7527.17C3107.67,7601.5 3166.79,7451.92 3245.43,7286.52C3260.69,7251.22 3280.69,7238.47 3306.16,7251.72L3324.49,7223.53L3207.5,7168.88L3192.14,7197.14C3219.82,7209.86 3226.98,7232.05 3205.56,7267.4C3138.69,7393.35 3080.67,7532.69 2985.25,7487.72C2902.55,7448.74 2974.54,7339.54 3063.93,7194.92C3072.24,7160.99 3094.99,7149 3124.89,7169.3L3142.22,7141.41C3097.41,7120.26 3051.52,7097.91 3003.34,7072.97ZM4773.44,7264.26L4783.41,7294.72C4808.89,7280.5 4830.94,7284.86 4845.83,7328.2C4918.15,7499.11 4951.72,7649.83 5101.26,7581.55C5251.28,7513.04 5171.44,7373.42 5091.43,7208.67C5073.41,7174.7 5075.95,7151.12 5102.21,7139.51L5091.65,7107.59L4975.88,7164.78L4988.35,7194.44C5015.58,7180.77 5037.38,7189.04 5051.59,7227.86C5108.15,7358.76 5180.69,7491.13 5085.95,7537.53C5003.85,7577.74 4963.58,7453.3 4906.51,7293.15C4885.21,7265.46 4890.07,7240.2 4924.6,7229.54L4913.65,7198.59C4869.14,7220.36 4823.02,7242.22 4773.44,7264.26ZM3347.21,7230.95L3331.9,7260.55C3363.56,7265.55 3377.76,7283.76 3358.05,7327.62L3277.72,7554.9C3268.3,7593.33 3249.61,7611.51 3212.91,7590.32L3201.43,7619.9L3355.08,7668.99L3364.9,7638.66C3326.47,7629.08 3324.8,7607.25 3338.91,7580.17L3380.3,7473.3C3425.27,7482.47 3456,7500.07 3431.85,7550.24L3458.54,7561.34L3516.57,7417.2L3490.99,7403.88C3476.72,7441.63 3449.16,7459.24 3393.05,7433.63L3438.98,7304.93C3507.86,7315.44 3551.1,7340.69 3533.05,7401.12L3560.15,7407.22L3589.35,7305.31C3509.04,7282.96 3428.73,7260.63 3347.21,7230.95ZM5118.94,7104.14L5133.46,7134.14C5156.44,7111.79 5179.52,7111.33 5202.83,7153.39L5336.65,7353.88C5361.78,7384.46 5365.13,7410.32 5326.18,7426.99L5342.98,7453.91L5474.35,7360.32L5455.95,7334.27C5425.25,7359.3 5406.78,7347.56 5393.55,7320.03L5332.79,7222.86C5367.07,7192.36 5399.59,7178.31 5425.27,7227.7L5450.15,7212.98L5369.53,7080.15L5343.53,7092.65C5365.21,7126.69 5362.8,7159.31 5308.67,7188.88L5233.15,7075C5282.85,7026.15 5328.97,7006.66 5366.53,7057.33L5387.65,7039.28L5323.56,6954.84C5257.54,7005.75 5191.54,7056.66 5118.94,7104.14ZM5373.68,6942.18L5391.04,6970.62C5411.74,6946.16 5434.68,6943.46 5461.95,6983.07L5614.56,7169.65C5642.53,7197.66 5648.37,7223.07 5611.21,7243.44L5630.55,7268.6L5752.24,7162.72L5731.4,7138.59C5703.27,7166.47 5683.74,7156.58 5667.91,7130.46L5598.03,7039.63C5629.19,7005.94 5660.19,6988.81 5690.54,7035.48L5713.88,7018.42L5620.77,6894.03L5596.11,6908.99C5620.98,6940.77 5621.74,6973.47 5570.73,7008.14L5484.53,6902.11C5529.27,6848.68 5573.28,6824.81 5615.58,6871.6L5634.85,6851.6L5562.88,6773.76C5502.11,6830.82 5441.35,6887.89 5373.68,6942.18ZM3618.29,7302.23L3613.48,7329.92C3641.97,7337.69 3653.8,7358.82 3641.79,7399.06L3587.65,7633.92C3589.03,7671.53 3571.15,7686.4 3531.08,7675.03L3521.04,7710.55C3572.42,7718.04 3629,7724.69 3682.48,7740.38L3690.12,7704.7C3666.99,7700.06 3644.24,7695.03 3655.79,7655L3678.62,7540.62C3722.72,7538.31 3754.59,7549.66 3745.8,7606.4L3774.22,7612.43L3811.64,7466.39L3783.72,7455.32C3775.73,7499.41 3754.16,7520.47 3692.61,7498.39L3719,7365.15C3793.99,7366.15 3833.45,7392.07 3826.23,7450.74L3853.27,7458.48L3873.51,7348.57C3790.31,7335.15 3706.09,7320.63 3618.29,7302.23ZM3912.22,7355.25L3910.76,7385.51C3942.47,7380.43 3957.56,7401.28 3953.07,7452.68L3939.23,7678.25C3940.96,7715.94 3927.85,7740.21 3886.55,7738.96L3886.55,7769.32C3976.2,7767.34 4067.79,7769.64 4160.49,7774.4C4179.84,7729.97 4194.55,7687.69 4201.69,7648.93L4173.54,7643.86C4152.24,7713.57 4099.3,7743.74 4006.77,7724.44L4018.73,7461.31C4015.8,7408.78 4039.26,7386.85 4079.55,7395.57L4078.69,7357.3L3912.22,7355.25ZM4183.69,7358.31L4186.95,7390.57C4213.77,7378.22 4231.72,7388.89 4236.47,7433.83L4263.25,7689.06C4269.7,7721.89 4257.53,7738.22 4224.53,7736.11L4225.05,7763.79L4490.15,7739.63L4516.84,7615.98L4490.42,7614.86C4474.04,7665.07 4455.17,7709.11 4416.78,7704.64L4335.08,7712.03L4320.22,7571.08C4368.58,7554.94 4414.43,7543.98 4423.4,7609.43L4450.52,7610.28L4440.23,7459.02L4412.91,7458.41C4418.85,7506.7 4387,7527.98 4318.87,7523.34L4302.04,7389.7C4371.51,7365.08 4423.29,7366.61 4435.34,7426.86L4468.11,7432.37L4451.79,7328.05L4183.69,7358.31ZM4496.25,7313.17L4506.16,7350.63C4531.17,7339.3 4551.97,7341.12 4559.11,7385.63L4631.89,7633.82C4640.55,7666.5 4627.91,7683.85 4600.39,7690.5L4606.13,7720.76L4764.75,7678.06L4749.86,7644.85C4726.04,7656.95 4707.01,7655.66 4698.95,7623.66L4670.03,7521.42C4774.12,7498.22 4819.8,7446.49 4786.72,7350.43C4774.98,7316.36 4741.95,7290.16 4692.77,7282.26C4656.77,7276.48 4611.27,7283.45 4571.67,7295.69C4547.38,7303.2 4537.48,7309.54 4496.25,7313.17ZM4618.01,7335.79C4629.3,7383.52 4643.04,7432.12 4659.02,7481.51C4712.8,7482.66 4730.94,7436.59 4720.36,7391.61C4710.58,7350 4678.54,7311.16 4618.01,7335.79ZM3809.7,742.587C3807.19,738.286 3782.28,750.084 3758.16,760.758C3736.48,770.349 3715.15,778.584 3716.07,781.014C3717.65,785.169 3743.11,777.799 3766.41,769.587C3791.51,760.742 3814.37,750.57 3809.7,742.587Z"/>
    </g>
</svg>
